<?xml version="1.0" standalone="no"?>
<!DOCTYPE svg PUBLIC "-//W3C//DTD SVG 1.1//EN" "http://www.w3.org/Graphics/SVG/1.1/DTD/svg11.dtd" >
<svg xmlns="http://www.w3.org/2000/svg" xmlns:xlink="http://www.w3.org/1999/xlink" version="1.1">
<metadata>
Created by FontForge 20200427 at Tue Aug 13 08:19:00 2019
 By www
Copyright (c) 2019 by Khurasan. All rights reserved.
</metadata>
<defs>
<font id="Greywall" horiz-adv-x="289" >
  <font-face 
    font-family="Greywall"
    font-weight="400"
    font-stretch="normal"
    units-per-em="1000"
    panose-1="0 0 0 0 0 0 0 0 0 0"
    ascent="800"
    descent="-200"
    x-height="737"
    cap-height="766"
    bbox="9 -70 770 826.889"
    underline-thickness="50"
    underline-position="-100"
    unicode-range="U+000D-007A"
  />
<missing-glyph 
 />
    <glyph glyph-name=".notdef" 
 />
    <glyph glyph-name="NULL" horiz-adv-x="0" 
 />
    <glyph glyph-name="NULL" horiz-adv-x="0" 
 />
    <glyph glyph-name="nonmarkingreturn" unicode="&#xd;" 
 />
    <glyph glyph-name="space" unicode=" " 
 />
    <glyph glyph-name="r" unicode="r" horiz-adv-x="528" 
d="M213 342q34 15 61 39q1 1 6 5.5t7 1.5q3 -5 -3.5 -17t-9.5 -17q-1 -2 -6 -10t0 -10q2 0 6.5 5.5t6.5 7.5q18 23 28 47q6 14 10.5 28.5t6.5 29.5q2 10 3 25t-1 24q-2 4 -2.5 7.5t-2.5 8.5q-3 14 -6.5 23t-13.5 20q-17 17 -38 25.5t-44 11.5zM504 141l-82 -146l-217 118
l-3 -107l-154 -3v21q-1 11 -1.5 23t-0.5 24q-1 11 -1 23t-1 24q0 11 -0.5 22.5t-0.5 22.5q-1 11 1 11t2 3q1 3 0 6t3 -5l2.5 -2.5t0.5 1.5q-2 4 -2.5 8.5t-1.5 8.5q1 -2 2.5 -11t4.5 -8q3 0 1.5 8t-1.5 10q-2 8 -3.5 16t-1.5 17q-1 10 -1 18t-2 19q-2 10 -2 17v18
q1 23 0 40.5t-6 40.5q-1 6 -1.5 11.5t-1.5 11.5v11v9q0 2 -0.5 3.5t0.5 3.5t0.5 6t1.5 -4q2 -3 2.5 -6t2.5 -7q2 -7 4 -13.5t4 -14.5q2 -7 4.5 -14t4.5 -14q3 -10 8 -22q6 -21 15 -40q2 -2 4.5 -7t3.5 -6q2 0 1.5 3t-2.5 7.5t-4 8l-2 3.5q-5 12 -8.5 25t-7.5 25
q-2 7 -4 14.5t-4 14.5t-3.5 14.5t-3.5 14.5q-2 13 -4 25t-4 25q-2 14 -4.5 26t-5.5 26q-2 7 -3 14.5t-3 14.5q-1 5 -1 12.5v13.5l-6 162q0 3 1 5q6 -1 12.5 -5.5t13.5 -10.5t13 -11.5t11 -9.5q14 -13 27.5 -26t26.5 -27q17 -15 32 -32l8 -6t8 -7q2 -2 10.5 -9.5t10.5 -7.5
q2 -1 0 3q-1 2 -3 3q-5 5 -9 8.5t-9 8.5q-4 3 -7.5 6t-7.5 7q-11 11 -20 21.5t-20 21.5q-10 11 -19.5 21.5t-18.5 21.5q-2 3 -6.5 8.5t-8 11.5t-5 12t1.5 9q2 2 6.5 2.5t6.5 1.5q43 9 88 11.5t88.5 -4.5t84 -25.5t74.5 -49.5q38 -36 59.5 -81t26 -93.5t-7.5 -97.5t-40 -92
q-26 -40 -62 -70t-78 -51z" />
    <glyph glyph-name="O" unicode="O" horiz-adv-x="632" 
d="M189 386q-1 -50 7.5 -91.5t25.5 -70.5q8 -12 15.5 -20t18.5 -16q11 -9 21 -17.5t20 -15.5t22 -12.5t27 -8.5q7 -1 15 -1.5t15 -0.5q11 -1 20 -0.5t19 3.5q6 2 5.5 4t-7.5 2t-13 -1t-14 0l-20 2.5t-19 3.5q-6 2 -15 7.5t-10 12.5q-1 4 3.5 4t7.5 1q24 5 43.5 19.5
t30.5 36.5l1 1q18 35 26 81t9 92v18q0 21 -3.5 45.5t-11 47t-20.5 41.5t-34 30q-18 10 -37.5 10.5t-38.5 -5.5t-35.5 -18t-29.5 -27q-24 -28 -34 -65q-2 -6 -6 -4.5t-7 4.5q-5 4 -9.5 11t-8.5 12q-3 5 -13 16.5t-15 12.5q-3 1 -2.5 -2t1.5 -5q2 -5 6.5 -11t8.5 -12
q5 -8 7.5 -14.5t6.5 -15.5q5 -12 14 -27.5t8 -29.5q-1 -7 -1 -13.5v-13.5zM19 388q0 20 1.5 39.5t3.5 39.5q5 42 18 81t36 74q3 5 5.5 4t6.5 -3q8 -4 16 -13t14 -16q5 -7 10 -13.5t9 -13.5q5 -8 9 -15.5t9 -15.5q11 -18 24 -33q4 -5 4.5 -3t-1.5 7q-3 5 -7 10.5t-7 10.5
q-5 10 -10 19.5t-10 19.5q-2 5 -4 8t-5 8q-8 13 -15.5 26t-13.5 27q-2 5 -4.5 13t1.5 13l8 8t9 8q48 45 107.5 66t119.5 16.5t114 -35t90 -88.5q30 -48 42 -103.5t13 -111.5v-1q1 -11 0 -21q-1 -64 -12.5 -129t-40.5 -120q-2 -4 -5.5 -10t-3.5 -10q0 -5 7 -5.5t7 -5.5v0
t-2 2h-1q4 -1 1 -4t-1 -1q2 3 1 2l-2 -2q1 0 2.5 1.5t-0.5 2.5q-1 0 -7 -4.5t-13.5 -9.5t-14.5 -10t-9 -6q-9 -7 -18 -14.5t-18 -14.5q-8 -6 -14 -12.5t-13 -11.5q-8 -6 -17.5 -8.5t-18.5 -5.5q-7 -2 -13 -5t-13 -5q-19 -6 -33 -8.5t-34 -3.5q-9 -1 -16 -1.5t-15 0.5
q-70 5 -127 41t-92 96q-30 50 -44 113.5t-13 136.5z" />
    <glyph glyph-name="o" unicode="o" horiz-adv-x="638" 
d="M195 304q6 -55 42 -94q16 -18 38 -30.5t44.5 -15.5t45 4.5t40.5 28.5q1 2 3 4t3 4q5 4 16 -5t15 -13q2 -2 9 -10t11 -4q2 2 0 7t-5 11t-6.5 11t-4.5 7q-4 8 -10 19.5t-3 19.5q6 22 8.5 42t3.5 43q0 3 -0.5 5.5t1.5 5.5q2 5 8 0.5t8 -6.5q11 -10 21 -21l20 -22
q7 -8 14.5 -16.5t14.5 -16.5q5 -6 11 -13.5t10 -13.5l2.5 -3.5l5 -7t4.5 -5.5t3 0q0 2 -2.5 6.5t-3.5 6.5q-5 9 -11.5 17t-12.5 16l-10 12t-10 13q-11 13 -21.5 27t-20.5 28q-5 7 -10.5 17t-11 21.5t-10 22t-5.5 18.5q-4 25 -10.5 48t-18.5 46l-1 1q-6 11 -13 19.5t-17 15.5
q-5 4 -9 7.5t-9 7.5q-11 8 -21 14t-21 13q-14 8 -26.5 15.5t-26.5 15.5q-23 13 -45 24q-3 1 -12.5 5t-11.5 3t0.5 -3t6.5 -4.5t7.5 -4t4.5 -1.5q11 -6 22 -12.5t22 -14.5q8 -5 16.5 -11.5t16.5 -13.5l3.5 -3.5t4.5 -5.5t3.5 -5.5t-0.5 -3.5q-5 -2 -14.5 4t-17.5 5
q-10 -1 -8.5 -9.5t0.5 -11.5t-6 -1t-11.5 5.5t-12.5 7t-8 4.5q-6 4 -11.5 7.5t-11.5 7.5q-2 1 -6.5 4t-9.5 5.5t-10 4t-6 0.5q-2 -1 -1.5 -3t2 -3.5t3.5 -3t3 -1.5q6 -5 10.5 -7.5t9.5 -7.5q8 -8 17 -16t15 -18l4 -8t-2 -8q-5 -6 -7 -11q-36 -58 -34 -158q0 -14 1 -28.5
t3 -31.5zM21 363q-1 71 13 132.5t44 109.5q11 17 22 31q36 44 85.5 69.5t103 31.5t107 -9t97.5 -52q11 -8 18.5 -16t15.5 -20q6 -10 11.5 -16t14.5 -14q2 -1 4.5 -3t1.5 -4q0 -6 4 -13l6 -12q2 -6 7 -16.5t7 -15.5q3 -10 5.5 -19.5t5.5 -19.5q2 -5 3 -10t2 -11
q2 -5 2.5 -9.5t2.5 -9.5t2 -9t1 -9q4 -25 5.5 -48.5t2.5 -48.5v-21q-1 -38 -7 -75.5t-19 -73t-34 -66.5t-51 -56q-2 -2 -6 -5.5t-7 -3.5q-5 0 -13.5 5t-13.5 7t-10 5l-10 6q-3 2 -11 6t-11 2t-0.5 -6t4.5 -6q7 -6 15.5 -14t13.5 -16q2 -3 3 -7t-4 -6q-60 -29 -128.5 -26
t-128.5 33q-75 38 -118 104t-53 148q-2 19 -3.5 38t-1.5 39z" />
    <glyph glyph-name="K" unicode="K" horiz-adv-x="635" 
d="M229 767l2 -210q30 38 60.5 76.5t55 70t40.5 51.5l16 20l175 -67l-11.5 -13.5t-30.5 -36.5t-44.5 -53.5t-54.5 -64.5t-59 -69.5t-59 -68.5q29 -35 57.5 -69t57.5 -69q2 -2 7 -9t4 -11q0 -3 -4 -1t-8.5 4.5t-9 4t-5.5 -1.5q-2 -2 0.5 -4.5t0.5 -0.5q-1 1 -1 1.5t1 -0.5
l2 -2q7 -6 13 -11t13 -10q11 -8 20.5 -16.5t20.5 -16.5q13 -10 19 -17t15 -20q8 -14 18 -23t21 -20q8 -9 16 -17.5t16 -18.5q5 -6 9 -11.5t9 -10.5l-168 -103l-210 331l2 -279l-170 -2q-1 12 -1 23.5t-1 23.5q-1 17 -2 34.5t-2 34.5v11.5t-1 11.5q0 6 -0.5 12t-0.5 12
q-1 11 -1.5 23t-0.5 23q-1 6 -1 12t-1 12q-1 17 -1.5 34t-1.5 34q-1 14 -1.5 28t-1.5 28v6.5t3 5.5q3 0 7 -4t8 -10t7.5 -11.5t5.5 -7.5q7 -10 11.5 -19t9.5 -20q13 -24 21 -46q2 -7 4.5 -12l5.5 -11q4 -8 7.5 -16.5t8.5 -16.5q2 -5 3.5 -4t-0.5 6q-5 14 -11.5 27t-11.5 27
q-13 35 -27 65q-7 16 -16 32q-9 21 -20 43q-2 4 -5.5 12.5t-7 17.5t-5.5 17t-2 12q0 5 3 5t6 -3t5.5 -6.5t3.5 -4.5q1 -2 7.5 -8.5t9.5 -2.5q2 3 -2.5 12l-6.5 13q-5 10 -10 20.5t-10 21.5q-3 8 -7 19t-4 20q-1 5 -1 11t-1 11q0 1 -0.5 6t-0.5 11t0.5 10.5t1.5 4.5
q2 1 6 -3.5t5 -6.5q9 -14 16.5 -29.5t15.5 -29.5q7 -12 11.5 -21.5t7.5 -22.5q0 -2 2.5 -11t5.5 -6q2 1 0.5 6t-2.5 7q-2 9 -3.5 15.5t-4.5 15.5l-8.5 17t-8.5 18q-5 10 -8.5 20t-8.5 20q-5 12 -8.5 25t-8.5 25q-5 13 -8.5 26.5t-6.5 27.5q-2 10 -2 19t-1 19q0 5 -0.5 11
t-0.5 11q0 4 -0.5 7.5t-0.5 7.5v1z" />
    <glyph glyph-name="k" unicode="k" horiz-adv-x="599" 
d="M27 10v1q2 171 2.5 340.5t1.5 340.5v22.5t1 23.5q0 2 -0.5 8t0.5 8q0 3 3.5 3.5t8 -0.5t8.5 -2.5t6 -2.5q13 -8 25 -16l24 -16q3 -2 12.5 -9t12.5 -6q5 2 0 6t-6 5q-12 11 -22 18.5t-19 21.5q-4 5 -5 8.5t7 4.5h22q12 0 24 -0.5t23 -0.5h46l11 -280l194 331l173 -103
l-276 -349q12 -14 24 -27t25 -27q3 -4 8.5 -9.5t7.5 -8.5q2 -4 3 -5.5t-4 -2.5t-15.5 2t-21.5 6.5t-21.5 8t-16.5 6.5q-10 3 -18.5 6t-17.5 6q-15 5 -29 8.5t-28 7.5q-8 2 -15 4l-14 4q-2 0 -8 1.5t-13 2.5t-12.5 1.5t-6.5 0.5q-2 -1 2 -2t9 -2l10 -2t6 -1q11 -2 20.5 -5
t20.5 -6q17 -5 34 -10.5t35 -12.5q24 -9 48 -21q17 -8 35.5 -16.5t35.5 -18.5q9 -5 16.5 -11t15.5 -12q7 -5 12 -9t10 -10l3 -3q2 -2 5 -6t0 -7q-4 -3 -18 -1t-20 2h-7q2 -1 1 -0.5t-2 -0.5q-3 -3 3 -5t7 -2q9 -3 17 -5t17 -6q16 -6 24.5 -12t21.5 -17q8 -7 12.5 -12
t11.5 -13t14 -14t14 -14q8 -9 16 -18.5t16 -18.5l-172 -66l-16.5 19.5t-43 51t-58.5 70t-64 76.5l8 -209z" />
    <glyph glyph-name="e" unicode="e" horiz-adv-x="474" 
d="M213 177q5 0 11.5 1t11.5 1q10 1 23 -3t23 -9q20 -9 41 -20.5t40 -22.5q22 -14 41 -25q8 -5 14 -8t14 -6l6 -3t5 -1q3 2 -3.5 5t-8.5 4q-8 4 -16 8.5t-16 9.5q-11 8 -21.5 15t-21.5 15t-23.5 17t-22.5 18q-2 1 -5 5t-1 6q1 2 7.5 2.5t8.5 1.5q5 0 10.5 0.5t11.5 1.5l90 9
h3l1 -2v-5q0 -5 0.5 -10.5t0.5 -10.5q0 -6 0.5 -11.5t0.5 -10.5q1 -11 1 -21.5t1 -21.5q1 -8 7 -14t1 -17q-5 -10 -5.5 -12t0.5 -13t1 -22t1 -22l-429 20v15q1 5 1 9.5v9.5q1 6 1 11.5v11.5q0 5 0.5 9t0.5 9t0.5 10.5t0.5 10.5q1 16 1.5 32t1.5 33l2 48l2 48v11t1 10t3 8.5
t2 8.5q0 10 -1 15q-2 5 -2 15q1 8 1 16.5v16.5q1 10 1 19.5t1 19.5q1 11 1.5 21.5t0.5 21.5q1 5 1 10.5v11.5q1 5 1 9v9q1 7 -2 5.5t-2 3.5q2 8 3.5 14.5t3.5 14.5q4 11 4 21t-2 21q-1 7 -0.5 12t0.5 12q1 15 1.5 29.5t1.5 29.5v16q0 4 3.5 4.5t7 0t7.5 -2t6 -2.5
q10 -5 19 -10t19 -10q8 -5 16.5 -9.5t16.5 -9.5q1 -1 9 -5.5t7 -0.5q0 2 -4 5t-6 4q-6 5 -12 8.5t-12 7.5q-15 10 -27 19t-25 21l-10.5 10.5t-9.5 11.5q-2 5 -2 12l392 -1l-8 -195l-235 24l5 -132l222 7v-22q-1 -11 -1 -22v-22v-12.5t-0.5 -22t-0.5 -21v-9.5q-2 -5 -11 -5
h-13q-14 2 -28.5 5.5t-27.5 8.5q-7 2 -13 4.5t-14 4.5q-11 4 -21 8t-21 6l-33 9q-9 2 -17.5 3.5t-17.5 3.5q-1 0 -4 0.5t-3 -1.5t9.5 -3.5t11.5 -2.5q8 -2 14.5 -3.5t14.5 -3.5q7 -2 15 -4.5t14 -4.5q11 -4 20.5 -8t20.5 -8q6 -2 11.5 -5t11.5 -5q14 -6 26.5 -11t26.5 -11
q6 -2 4 -1.5t-6 0.5q-2 0 -4 0.5t-5 0.5q-6 2 -13 3.5t-12 2.5q-3 0 -5.5 0.5t-5.5 0.5q-4 1 -6.5 1.5t-6.5 0.5q-15 3 -30.5 6t-30.5 6q-17 3 -33.5 6.5t-33.5 6.5l5 -146z" />
    <glyph glyph-name="E" unicode="E" horiz-adv-x="484" 
d="M426 480l2 -167l-222 8l-5 -136q6 1 11.5 1t11.5 1q17 2 33.5 3.5t33.5 3.5q5 0 12 1t10 0q8 -2 15 -7.5t13 -10.5q11 -8 19.5 -16t18.5 -17t19 -18.5t20 -18.5q18 -15 34 -27q1 -1 6.5 -4.5t4.5 0.5q-1 3 -9 9.5t-11 8.5q-11 11 -22 21t-21 22q-8 9 -16.5 19t-15.5 20
q-2 2 -6 8.5t-4 9.5q0 7 6 7q2 1 5.5 1h6.5l60 6q1 1 1 -3q1 -20 1.5 -41t1.5 -41q0 -11 6.5 -19t12.5 -16q14 -17 -6 -18q-9 -1 -10 -3.5t-1 -10.5q0 -5 0.5 -10.5t0.5 -10.5q0 -7 0.5 -13.5t0.5 -14.5l-392 -1v12t-1 11v10.5t-1 10.5q-1 17 -1.5 34t-1.5 34v11t-1 11v11
t-1 11q-1 17 -1.5 34t-1.5 34q0 10 -0.5 20t-1.5 20v22q-1 5 -1 10.5v10.5q-2 23 -2.5 45.5t-1.5 45.5q-1 6 -1 11.5v11.5q-1 5 -1 11v11q-1 17 -1.5 34t-1.5 34q-1 5 -1 10.5v10.5q0 2 -0.5 8.5t-0.5 13t-0.5 12.5l-0.5 6q1 4 5.5 4t10 -2t10 -4.5t6.5 -3.5q19 -11 36 -25
q5 -3 8.5 -6t8.5 -6q12 -10 25 -17t25 -15q2 -2 7 -5t7 -3q3 0 2 1.5t-2 2.5q-4 3 -11.5 8.5t-12.5 8.5q-11 7 -20.5 13.5t-19.5 15.5q-4 3 -8 6.5t-8 7.5q-8 7 -15.5 13.5t-15.5 13.5q-7 6 -20 17.5t-17 19.5q-3 5 -3 9.5t-1 10.5q0 3 -0.5 12.5t0.5 11.5q2 4 6.5 3t7.5 -3
q8 -2 17 -6.5l17 -8.5q24 -12 46.5 -26t45.5 -28q10 -6 19.5 -12t20.5 -12q8 -5 14.5 -8.5t13.5 -8.5q6 -3 12.5 -7.5t12.5 -8.5q2 -1 6.5 -4t6.5 -3q2 1 -2 4t-5 3q-18 13 -35 23q-8 5 -17 10.5t-18 10.5q-9 6 -18 12.5t-18 12.5q-14 8 -27 17.5t-27 17.5q-12 8 -24.5 16.5
t-23.5 17.5q-6 5 -16 14.5t-14 15.5t-4 10t-1 11v3v9l429 20l-9 -198q-6 0 -11.5 0.5t-11.5 1.5q-5 1 -11 1t-11 1q-11 2 -22.5 2.5t-22.5 2.5q-5 0 -8.5 0.5t-7.5 1.5l-22 2l-22 2q-5 1 -11 1.5t-12 0.5q-10 2 -19.5 2.5t-19.5 1.5q-3 1 -4.5 0.5t-4.5 -0.5
q6 -9 22.5 -21.5t24.5 -20.5q2 -2 5 -5.5t-2 -4.5q-3 -1 -13.5 4.5t-15.5 7.5q-4 2 -14.5 5t-11.5 -6v-10t-1 -10q0 -11 -0.5 -22.5t-0.5 -23.5q-1 -5 -1 -10.5v-11.5q0 -5 -0.5 -9.5t-0.5 -9.5z" />
    <glyph glyph-name="N" unicode="N" horiz-adv-x="629" 
d="M59 -3q-5 84 -9.5 166t-9.5 166q0 7 -0.5 13.5t-0.5 12.5q-1 8 -1.5 14.5t-0.5 13.5q-2 20 -2.5 40.5t-2.5 41.5q-2 20 -2.5 40.5t-2.5 40.5q0 7 3 8t9 0q10 -2 26.5 -10t25.5 -13q12 -8 22 -14t21 -14q29 -20 57.5 -39.5t57.5 -38.5q20 -14 39.5 -27.5t39.5 -28.5
q8 -5 16.5 -11t16.5 -12q5 -4 10.5 -7t10.5 -7q7 -5 13 -9t13 -9q2 -2 2.5 -2t2.5 -1q0 2 -3 5q-11 8 -21 15t-21 15q-5 4 -11 8t-12 9q-16 11 -31.5 22.5t-32.5 22.5q-38 27 -75 53t-74 55q-15 13 -30.5 24.5t-31.5 23.5q-4 3 -11 8.5t-14 11.5t-12.5 12.5t-5.5 10.5
q-1 5 7 3t10 -3q11 -5 22 -12t21 -13q12 -7 22 -14.5t21 -15.5q10 -8 19.5 -13.5t19.5 -13.5q5 -5 11 -8.5t11 -7.5q1 0 4 -3t7 -5l7 -3.5t3 1.5q0 2 -5.5 6.5t-12 9.5t-13 9t-8.5 6q-8 8 -17 14t-18 14q-7 5 -13.5 11t-13.5 11q-11 8 -21 16t-21 17q-5 4 -13.5 11t-16 15
t-13.5 16t-6 16v8t-1 8l-3 63l195 17l218 -383l8 364l170 -4v-12.5t-1 -12.5q0 -21 -0.5 -41.5t-0.5 -41.5q-1 -14 -1 -27.5t-1 -27.5v-28v-13.5t-1 -12.5v-27t-1 -27q0 -9 -0.5 -17.5t-0.5 -17.5q0 -2 0.5 -3.5t0.5 -4.5q0 -2 2.5 0.5t0.5 -0.5q-2 -5 -2.5 -19t-1.5 -21
q-2 -8 -2 -16t-1 -16q-1 -14 -3 -30.5t1 -29.5q0 -2 0.5 -3t1.5 -4q2 -11 1 -29t-2 -30l-2 -22t-1 -22q-1 -13 -0.5 -25t0.5 -25v-44q0 -18 -0.5 -36t-0.5 -36v-2l-170 3l-202 368l9 -386z" />
    <glyph glyph-name="n" unicode="n" horiz-adv-x="643" 
d="M421 5l-218 357l-8 -339l-170 3q1 13 1 25.5t1 25.5v25t1 25q1 20 1 38.5t1 37.5v25q1 38 2 76.5t2 76.5v11t1 10q4 10 18.5 17.5t24.5 12.5q7 3 16 6t17 6q16 6 30.5 11.5t30.5 12.5q6 3 11.5 5t12.5 5q2 0 6.5 2.5t3.5 4.5q-2 2 -10.5 -0.5t-10.5 -3.5q-9 -2 -18 -5.5
t-18 -6.5q-17 -6 -32.5 -10t-33.5 -8q-8 -2 -22 -4.5t-21 1.5q-5 3 -5 5.5t1 7.5v26q0 6 0.5 12t0.5 12v26q1 7 1 13v13q0 13 0.5 26t0.5 26q1 22 1 43.5t1 44.5l170 -4l202 -343q-2 45 -2.5 89.5t-2.5 89.5q0 3 -0.5 12t1.5 11q2 4 6 4t7 -1q5 -2 15.5 -4.5t14.5 -0.5
q5 3 0.5 8t-6.5 7q-12 8 -14.5 10t-10.5 14q-5 9 -10 19.5t-5 21.5q-1 6 -1 12.5v12.5q0 3 -0.5 12t0.5 11q2 5 7 3t8 -4q13 -8 27.5 -22.5l25.5 -25.5q11 -10 20.5 -20t20.5 -20q8 -9 17 -17q1 -1 5 -4t8 -6.5t7.5 -6.5t5.5 -3q4 -1 1 4q-4 6 -14 14t-16 14q-4 5 -8 9.5
t-9 9.5q-8 8 -15 17t-15 17q-4 4 -12 13.5t-16 20.5t-13.5 21t-3.5 15q1 5 5 5h8q32 2 62.5 3t61.5 3q2 -20 3 -39t2 -39q1 -13 2 -25.5t2 -25.5q1 -14 1.5 -26.5t1.5 -25.5q2 -32 4 -64.5t4 -64.5q1 -13 1.5 -26t1.5 -26q2 -26 3 -51.5t3 -51.5l3 -51l3 -51
q2 -35 4.5 -68.5t4.5 -67.5z" />
    <glyph glyph-name="A" unicode="A" horiz-adv-x="558" 
d="M19 3q4 20 7.5 40.5t8.5 40.5q2 13 15.5 30t22.5 28q6 7 13.5 14t14.5 14q11 11 20.5 21.5t19.5 22.5q1 2 5.5 6.5t9 10t8 9.5t3.5 6q1 4 -2 2.5t-4 -2.5q-6 -5 -15.5 -14.5l-14.5 -14.5q-12 -13 -24 -24t-27 -20l-6 -3t-8.5 -4.5t-8.5 -3t-5 1.5t0 8t1 8q2 7 3 13t3 13
q4 20 7.5 40.5t8.5 40.5q1 7 2 13.5t3 13.5q4 20 7.5 40.5t8.5 40.5q2 14 5 27t5 27l48 243q1 7 2 13.5t3 13.5t3 13.5t2 13.5q2 7 3 13.5t2 12.5l1 3l291 -18l79 -756l-179 1l-15 154q-23 -1 -46.5 -1.5t-46.5 -0.5q-10 0 -8 10q0 8 3.5 19.5t2.5 16.5q-1 3 -0.5 1t-0.5 -4
q-2 -8 -8 -22.5t-10 -22.5l-9.5 -19t-8.5 -20q-3 -9 -5 -20.5t-4 -21.5q-4 -20 -7.5 -39t-7.5 -38q-19 1 -37 1.5t-37 2.5q-10 1 -8 6.5t6 10.5q4 8 12 17.5t14 16.5q8 11 17.5 22t18.5 22t18 23t18 23q10 14 17 25.5t15 26.5q1 2 2.5 5.5t1.5 5.5q-1 2 -3.5 -0.5t-3.5 -4.5
q-4 -6 -7.5 -13.5t-8.5 -14.5q-9 -14 -19.5 -26.5t-21.5 -25.5q-14 -17 -30.5 -34t-33.5 -32q-7 -7 -15.5 -13.5t-16.5 -12.5q-7 -5 -18 -11.5t-19 -8.5q-9 -3 -14.5 -2.5t-14.5 0.5h-3zM331 326q-1 5 -1.5 10.5t-0.5 11.5q-1 6 -2 13.5t-1 13.5q0 7 0.5 13.5t-0.5 13.5
q0 9 -0.5 16.5t-2.5 17.5q-2 11 -2 21.5t-2 21.5q-1 5 -0.5 5.5t-1.5 5.5t-3 16.5t-2 17.5q-1 7 -1 13.5t-1 12.5q-1 9 -1.5 17.5t-1.5 17.5q-1 3 -1 -1q-2 -7 -3 -13.5t-2 -14.5q-3 -14 -6 -27t-5 -27q-9 -45 -17.5 -88.5t-17.5 -88.5v-1z" />
    <glyph glyph-name="a" unicode="a" horiz-adv-x="545" 
d="M11 37q2 6 3 12l2 12q2 6 3 12t3 13q4 19 7.5 37t8.5 37q2 7 3 13l2 12l6 24l2 12t3 12q1 5 2 11t3 12q4 19 8 37t8 37q2 5 2.5 11t2.5 12q2 7 2.5 13t2.5 12q3 13 5.5 25t5.5 25q5 21 21.5 35.5t35.5 25.5q11 6 21 11t21 10q2 2 8 5t3 6t-13 0t-14 -5q-4 -1 -13.5 -4.5
t-20 -6.5t-19 -4.5t-11.5 0.5t-2 6.5t2 6.5q3 12 13 21q11 11 25.5 23t26.5 21q15 11 31 22.5t32 21.5q11 7 26 14t27 10q3 1 13.5 3.5t9.5 6.5q-1 2 -5.5 0.5t-6.5 -2.5q-12 -2 -19.5 -4t-18.5 -7q-16 -7 -29.5 -14t-27.5 -15q-5 -3 -15.5 -9.5t-22.5 -12.5t-22.5 -11
t-14.5 -5q-8 0 -7.5 4.5t1.5 9.5q3 12 5.5 23.5t5.5 23.5l21 96l234 4l137 -709l-172 -9l-16 82q-7 -1 -13.5 -1h-14.5h-7h-10.5h-10.5h-6q-5 1 -3 5.5t6.5 9.5t9.5 9t7 6t6 6.5t-1 7.5q-4 2 -14 -3.5t-14 -7.5q-19 -12 -40 -23q-10 -5 -19 -8.5t-21 -4.5h-1l-18 -80z
M233 255q21 1 41.5 1t41.5 1q-2 11 -2.5 20t-1.5 21q0 13 -4 17t-6 15q-3 12 -2.5 23t-4.5 23q-3 6 -5 17t-4 19q-2 11 -4.5 23t-4.5 23q-8 -38 -16 -75t-16 -75l-6 -26t-6 -27z" />
    <glyph glyph-name="c" unicode="c" horiz-adv-x="566" 
d="M548 254q-4 -78 -32 -138q-12 -26 -30.5 -50t-45 -42.5t-62 -29t-82.5 -7.5h-1q-52 3 -93.5 20.5t-73.5 47t-54 68.5t-35 84q-23 75 -21 161q1 46 9 94q1 3 1.5 6.5t3.5 5.5q4 2 12 0.5t12 -3.5q20 -7 41 -17.5t40 -20.5q6 -4 13.5 -8.5t13.5 -7.5q2 -1 5.5 -1.5t1.5 3.5
q-1 2 -7.5 7t-15 11t-16.5 11t-11 7q-7 4 -17 11t-20.5 14.5t-20 15t-13.5 13.5q-4 4 -6.5 8t-0.5 10q12 41 32.5 81.5t49.5 72.5t67 52t85 22q63 2 107.5 -19t76.5 -54q21 -23 35.5 -49t23.5 -52t13.5 -50t4.5 -43l-164 -4q0 17 -7.5 41.5t-24.5 44.5q-10 10 -24.5 16
t-35.5 5q-26 -1 -47 -32.5t-35 -79.5q-3 -10 -5.5 -19t-4.5 -19q-1 -8 -1.5 -14.5t-2.5 -14.5q-3 -20 -3 -39q-1 -4 -1 -7.5t-4 -5.5q-4 -1 -11.5 1.5t-16 6.5t-16.5 7.5t-12 5.5q-11 5 -21.5 9t-21.5 9q-3 1 -12 4.5t-11 -0.5q-2 -2 3.5 -5.5t7.5 -4.5q9 -5 17.5 -9
t17.5 -9q12 -7 25 -15.5t23 -17.5q1 -1 5 -4.5t8.5 -7.5t7.5 -7.5t2 -4.5q-2 -1 -6 0t-9.5 2.5t-10.5 2.5t-8 0q-5 -3 1 -9.5t8 -8.5q14 -11 29.5 -26t20.5 -32q13 -38 38 -66t68 -30q29 -2 45.5 14.5t24.5 36.5q9 24 10 55z" />
    <glyph glyph-name="D" unicode="D" horiz-adv-x="542" 
d="M220 599q-1 -14 -1 -27.5t-1 -27.5q-2 -42 -3.5 -83t-3.5 -83v-14t-1 -14q0 -12 -0.5 -24.5t-1.5 -25.5q0 -8 -10 -8q-12 1 -32.5 11t-32.5 16q-8 4 -15.5 7.5t-15.5 7.5q-11 5 -21 11t-21 11q-3 1 -9.5 3.5t-13.5 5.5t-13 5t-7 2q-4 0 -2.5 -2t3.5 -3q5 -4 14.5 -8
t16.5 -7q14 -7 28 -15l28 -16q7 -5 13.5 -9t13.5 -8q12 -8 24.5 -17.5t23.5 -17.5q6 -5 16 -14.5t10 -17.5q0 -6 -0.5 -13t-0.5 -14q-1 -11 -1.5 -23t-0.5 -24q37 4 63.5 23t44 46t26 60t9.5 66q0 6 1 8t7 0q8 -2 14.5 -5t13.5 -7q5 -4 12.5 -8.5t12.5 -8.5l26 -20t24 -21
q8 -7 12 -12t9 -13q2 -2 5.5 -7t5.5 -5t1 1.5t-1 3.5q-5 8 -8.5 14t-10.5 14q-8 8 -14 14.5t-14 14.5q-12 11 -24.5 22t-23.5 22q-8 8 -16.5 17t-16.5 17q-5 5 -10 11.5t-7 11.5q-3 6 -3.5 11t-2.5 12q-6 24 -15.5 48t-24 45t-34 37t-44.5 24zM32 3q-1 48 -1 96.5t-1 97.5
q-1 35 -1 69v69q0 6 -3 9.5t-7 8.5q-5 7 -8 13t5 14q9 7 10.5 9t1.5 13v18.5t-1 18.5q0 10 4.5 9.5t11.5 -2.5q14 -5 30 -14.5t27 -18.5q11 -8 20 -14.5t19 -16.5q8 -8 13.5 -14.5t12.5 -14.5q2 -2 8 -9.5t9 -7.5q4 0 0 5.5t-6 7.5q-8 11 -15 20t-16 20q-8 8 -14 13.5
t-14 12.5q-13 13 -28 25q-6 4 -16 12.5t-20 18.5t-17.5 19.5t-8.5 16.5q-1 4 -0.5 9.5t-0.5 10.5q0 48 -0.5 96.5t-1.5 96.5v28v17v1q40 0 85 1t84 -4q112 -15 190.5 -83.5t113.5 -173.5q38 -112 17 -228q-2 -8 -3 -13.5t-4 -13.5q-8 -25 -15.5 -45t-20.5 -43
q-26 -44 -60 -75t-74.5 -50.5t-86.5 -28.5t-95 -8z" />
    <glyph glyph-name="d" unicode="d" horiz-adv-x="533" 
d="M209 583q-3 -2 -5 -5q-5 -4 -5.5 -6t-0.5 -8q4 -101 8 -201t9 -201q28 8 49 26.5t36 42.5t24 51.5t13 54.5q5 33 2.5 69.5t-14.5 69.5t-35 59t-58 38q-6 2 -12 3.5t-11 6.5zM150 736q37 1 74 -3.5t72 -17.5q70 -24 118.5 -71.5t73.5 -108.5t27.5 -130.5t-18.5 -136.5
q-7 -23 -20 -51.5t-27 -47.5q-5 -8 -11.5 -14t-11.5 -13q-5 -6 -7.5 -11l-5.5 -11q-5 -8 -14 -15.5t-12 -14.5q-1 -2 -1 -1.5t-0.5 1.5t-1.5 2t-3 -1l-2 -2q-5 -6 -10 -9t-13 -7q-9 -5 -15.5 -9.5t-14.5 -10.5q-11 -8 -23 -10.5t-20 -7.5q-4 -3 -3 -1.5t-1 0.5
q-3 -1 -4.5 -4.5t-9.5 -6.5q-17 -6 -38.5 -11t-39.5 -7q-39 -5 -84 -4t-86 1q1 14 1 28.5v28.5q0 28 0.5 55.5t0.5 54.5v14.5t1 13.5v27v27v28q1 14 1 27v27q0 27 0.5 54.5t0.5 54.5v10t1 9q1 7 8 16t17 18t19.5 17t15.5 13q11 10 22 18t24 16q10 7 21.5 12.5t22.5 10.5
q7 2 20 6.5t18 7.5q3 2 3.5 3.5t-3.5 1.5q-3 -1 -12.5 -3.5t-13.5 -4.5q-11 -3 -19 -5.5t-18 -7.5l-18 -9t-17 -9q-17 -11 -34 -21.5t-35 -18.5q-3 -2 -10.5 -3.5t-9.5 2.5q-1 2 -1 12v13q0 5 0.5 11.5t2.5 11.5q6 12 17.5 21.5t22.5 17.5q11 7 20.5 11.5t21.5 9.5
q6 3 21 8.5t19 8.5q2 1 2.5 3t-2.5 2q-2 1 -11 -1t-19.5 -5t-20 -6t-13.5 -4q-11 -4 -23 -8.5t-23 -6.5q-7 -2 -10.5 -0.5t-3.5 9.5q1 26 1 52.5v53.5z" />
    <glyph glyph-name="F" unicode="F" horiz-adv-x="515" 
d="M225 615l-2 -155l170 21l5 -169l-177 7l-5 -314l-170 2q0 7 -0.5 13t-0.5 13q-1 20 -1.5 39t-1.5 38q-1 14 -1.5 28t-0.5 28q-3 63 -5.5 124.5t-5.5 124.5q0 7 -0.5 13.5t-0.5 13.5q-1 14 -1 28t-1 28q-1 7 -1 13.5v14.5q-1 6 -1 12v12q-1 10 2.5 15.5t10.5 11.5
q12 13 25 20.5t28 15.5q8 5 16.5 9t17.5 8q3 2 12 5.5t9 7.5q-1 3 -8.5 1.5t-9.5 -2.5q-8 -2 -15 -5t-15 -6q-4 -2 -14.5 -5.5t-22 -7t-22 -5.5t-13.5 -1q-4 2 -4 6.5v8.5q-1 6 2 10t6 9q6 7 21 19.5t23 17.5t17 11t18 11q6 5 14.5 9t16.5 8q11 5 20.5 9t20.5 9q8 2 14 5
t14 5t14.5 4t14.5 5q17 5 35 8q3 1 9.5 1.5t8.5 2.5t-0.5 2.5t-3.5 0.5q-11 -2 -21.5 -3t-21.5 -5q-6 -2 -11.5 -3.5t-11.5 -2.5q-9 -2 -16.5 -4.5l-16.5 -5.5q-8 -3 -16.5 -5.5t-16.5 -5.5q-11 -5 -21 -9.5t-21 -9.5t-20 -9.5t-20 -9.5q-9 -3 -21.5 -8.5t-21.5 -7.5
q-10 -2 -10.5 2t-0.5 13q-1 14 -1.5 27.5t-1.5 27.5v5.5t6 0.5q32 0 64 0.5t64 1.5q8 0 16 0.5t16 1.5q7 0 14.5 1.5t15.5 2.5q6 1 12 1.5t13 2.5q11 2 23.5 3.5t23.5 0.5q11 0 11 -9q0 -3 6 -3q23 1 46.5 1t46.5 1q26 0 51 0.5t51 0.5l3 -170z" />
    <glyph glyph-name="f" unicode="f" horiz-adv-x="488" 
d="M20 5v19v28v54v26v150q0 5 -0.5 17.5t0.5 16.5t4 4t6.5 -1.5t7 -3.5t5.5 -3q14 -10 27 -20.5t26 -21.5q15 -13 29.5 -27t31.5 -27q9 -7 18.5 -14t18.5 -14q11 -8 22.5 -17t22.5 -17q13 -9 26.5 -18.5t27.5 -17.5q2 -3 4 -2q-1 3 -3.5 4.5t-4.5 3.5q-14 10 -27.5 19.5
t-27.5 20.5q-17 13 -32.5 25.5t-31.5 25.5q-17 13 -30 26t-27 28q-15 15 -31 30t-29 32q-10 12 -22 29.5t-12 33.5v97q0 8 1.5 8.5t9.5 0.5q5 0 13.5 -8t11.5 -11q12 -12 23.5 -24t22.5 -24q18 -20 37 -36t41 -33q1 -1 6.5 -5t5.5 -1q0 2 -3.5 5t-5.5 5q-10 8 -19.5 16
t-18.5 16q-8 8 -17 17.5t-17 17.5q-14 16 -27.5 32.5t-25.5 33.5q-4 5 -8.5 11.5t-7.5 12.5q-3 5 -6.5 11t-5.5 11q-4 8 -6 13t-3 9.5t-1 10v14.5v55v56v54l448 9l3 -170l-273 19l9 -160l201 24l5 -169l-198 7v-1q2 -21 2.5 -42t2.5 -42q0 -5 0.5 -19t2.5 -17q5 -15 19 -29
t26 -24q6 -5 15 -11.5t14 -11.5q6 -8 -2 -8q-3 0 -10 3.5t-15 8t-16 8.5l-12 6q-5 2 -10 2t-6 -5v-8t0.5 -15.5t1 -15.5t0.5 -9q2 -21 3 -42l2 -42h-212z" />
    <glyph glyph-name="G" unicode="G" horiz-adv-x="592" 
d="M401 505l-1.5 18t-9.5 39t-25 38t-47 15q-34 0 -59 -21q-4 -3 -1 -10q3 -5 8.5 -10t11.5 -10t10.5 -9.5t5.5 -7.5q1 -5 -4.5 -4.5t-8.5 1.5q-11 3 -20 7.5t-22 5.5q-11 1 -14 -2.5t-6 -12.5q-5 -8 -8 -16.5t-6 -16.5q-16 -56 -14 -116q1 -45 12 -95.5t34 -90.5
q9 -17 23.5 -32.5t34.5 -17.5q22 -1 37 5.5t25 17.5q9 11 15 21.5t11 23.5q-27 -5 -53.5 -9t-52.5 -9q-4 -1 -8 -1v27q-1 14 -1.5 28t-0.5 28q-1 5 -1 11v12q-1 17 -1.5 34.5t-0.5 34.5v2q15 -1 30 -1h32q17 -1 32 -8.5t29 -16.5q9 -6 18.5 -11.5t17.5 -11.5q7 -5 14 -9.5
t14 -8.5q4 -3 8 -6.5t8 -6.5q6 -3 11 -6t11 -7q0 -1 4.5 -4t6.5 1q1 2 -6.5 7.5t-9.5 6.5q-5 5 -10.5 8.5t-9.5 7.5q-6 5 -13.5 10.5t-13.5 10.5q-3 2 -8.5 7t-11.5 10.5t-10.5 11t-4.5 8.5q-1 5 3 5.5t7 0.5h25q23 0 46.5 -0.5t46.5 -0.5h11.5t11.5 -1h10l-2 -114v-9
q-1 -20 -5.5 -44t-14 -49.5t-24.5 -51.5t-36 -49q-32 -35 -79.5 -56.5t-110.5 -19.5q-45 1 -84 20t-70 51t-54 75.5t-38 93.5q-11 38 -17 80t-8 85q-2 87 21 167q6 17 12 33t14 32q4 7 8.5 7t9.5 -1q7 -1 17.5 -4t18.5 -5q16 -5 31 -10t29 -12t29.5 -14t30.5 -15
q11 -5 21 -10.5t19 -10.5q2 -2 6 -3.5t6 -0.5q0 3 -3 5q-8 5 -17.5 10.5t-17.5 10.5q-7 5 -14.5 8t-15.5 7q-32 20 -64 35q-6 3 -15 8l-18 10t-17 10.5t-11 10.5t-5 8t3 8q3 4 11 3.5t17 -3t17 -6t12 -6.5q5 -2 16 -8.5t16 -5.5q4 1 2.5 5t-5 8t-8 7t-5.5 4q-8 6 -20.5 16.5
t-16.5 18.5q-3 5 0.5 8t7.5 7q35 31 77.5 46t89.5 18q49 2 86 -8.5t65 -29.5t47 -44t31 -52q29 -62 34 -144z" />
    <glyph glyph-name="g" unicode="g" horiz-adv-x="577" 
d="M305 204q-2 14 -3.5 27t-3.5 27q-3 20 -5.5 40t-4.5 40q-2 8 -3 17t-3 17l273 25l-7 -144v-5q-2 -36 -11 -73t-26 -69q-1 -3 -2 -4.5t-7 -0.5q-5 0 -14 3.5t-15 6.5q-5 2 -9.5 4t-11.5 4q-6 4 -13.5 6.5t-15.5 5.5q-22 7 -46 13q-7 2 -13.5 2.5t-13.5 2.5q-2 0 -7.5 0.5
t-6.5 -0.5q-1 -2 5 -4t8 -2q15 -3 27 -6q11 -3 20.5 -6.5t20.5 -5.5l14 -7t14 -8q5 -4 10 -6.5t10 -7.5q10 -8 17 -19q2 -5 3.5 -8t-2.5 -8q-37 -44 -84.5 -60.5t-102.5 -14.5q-53 3 -95 21t-74 48t-54.5 69t-35.5 84q-11 38 -16.5 78.5t-3.5 82.5q0 24 2.5 47.5t6.5 47.5
q1 2 1.5 6t3.5 6q4 2 11.5 0t12.5 -3q20 -7 40.5 -17.5t39.5 -21.5q7 -4 14.5 -8t12.5 -8q2 0 6.5 -1t2.5 3q-1 3 -8 8t-15.5 11t-16.5 11t-11 7l-16.5 11t-21.5 14.5t-20.5 15t-13.5 13.5q-3 5 -6 8.5t-1 9.5q12 41 33 81.5t50 72.5t67.5 52.5t86.5 22.5q61 2 106.5 -19
t77.5 -55q21 -22 35.5 -48t23.5 -52.5t13.5 -50.5t4.5 -43l-165 -4q-1 17 -8 41.5t-25 43.5q-10 10 -24 16.5t-36 5.5q-25 -1 -46.5 -32.5t-35.5 -79.5q-2 -10 -4.5 -19t-5.5 -20q-2 -7 -2 -14t-2 -13q-3 -21 -3 -41v-7.5t-5 -5.5q-4 -1 -11.5 1.5t-16.5 6.5t-16.5 7.5
t-11.5 5.5q-11 5 -22 9.5t-22 9.5q-2 0 -11 4t-11 0q-2 -3 3 -6t7 -5q9 -5 18 -9t18 -9q12 -6 24.5 -14.5t23.5 -18.5q1 -1 5.5 -4.5t8.5 -7.5t7 -7.5t2 -4.5q-2 -1 -6 0.5t-9.5 3t-10.5 2.5t-8 -1q-5 -3 1 -9l8 -8q13 -13 28.5 -27.5t22.5 -31.5q13 -38 38 -66.5t67 -31.5
q8 0 15 0.5t12 4.5q7 6 19 11q11 6 18.5 22t10.5 30z" />
    <glyph glyph-name="H" unicode="H" horiz-adv-x="538" 
d="M205 418q9 1 18.5 1.5t17.5 0.5q9 0 21.5 -3.5t25.5 -8.5t25.5 -10.5t21.5 -9.5q18 -11 35 -19q4 -2 12 -7t10 -4q4 2 -4 7.5t-9 7.5q-14 9 -24 18q-3 1 -8.5 4.5l-11 7t-10 7.5t-4.5 6q0 5 1.5 6t6.5 1q5 2 10 2h9h10l6 340l152 -2l6 -753l-171 3l5 240l-154 -5l-6 -246
l-170 -2q-1 24 -1 48v49q0 5 -0.5 10.5t-0.5 11.5v23.5t-1 24.5v24v11t-1 12v24v11.5t-1 12.5v24v23v96v35t-1 37q-1 24 -1 47.5t-1 47.5q0 13 -0.5 25t-0.5 23v12.5v20v19v9.5q1 5 7.5 3.5t9.5 -3.5q14 -5 24.5 -10.5t21.5 -13.5q10 -5 17.5 -9.5t16.5 -9.5q2 -2 8 -4.5
t8 -0.5q2 1 0 3t-5.5 4.5t-7 4.5t-4.5 3q-10 5 -19.5 12t-19.5 15q-5 5 -10.5 8.5t-11.5 8.5q-7 6 -19.5 18t-15.5 20q-2 5 -2 11.5v11.5v10q5 0 12 0.5t13 0.5q12 0 28 -7t27 -12q20 -10 38.5 -21t38.5 -21q9 -6 18.5 -12.5t18.5 -11.5q19 -14 36 -27q1 -1 5.5 -4t9.5 -6.5
t9 -6t5 -2.5q2 -1 1 1t-2 2q-7 6 -14.5 12t-14.5 12q-10 8 -22 17t-24 17q-10 7 -19.5 12.5t-18.5 12.5q-4 2 -11 7l-14 10t-13 10t-7 8q-1 2 -2.5 6t-0.5 5q1 2 5 2.5t6 0.5h11t12 1q5 0 11 0.5t11 0.5q11 1 21.5 1.5t22.5 1.5q0 -15 -0.5 -30.5t-0.5 -30.5q-1 -9 8 -20
q5 -7 12.5 -14.5t12.5 -13.5q5 -4 8 -6.5t8 -7.5l3.5 -3t6.5 -6t4.5 -5.5t-2.5 -2.5t-13 6t-13 9q-5 2 -17 8t-17 3q-2 -1 -2.5 -4.5t-0.5 -5.5q0 -31 -0.5 -60.5t-1.5 -58.5v-25t-1 -23q0 -16 -0.5 -31.5t-0.5 -32.5z" />
    <glyph glyph-name="h" unicode="h" horiz-adv-x="539" 
d="M12 9l1 2v18q0 12 0.5 23.5t0.5 24.5v23q1 11 1 21.5v22.5v20q0 5 1 6q3 2 4.5 9t2 15.5t0 16t-1.5 11.5t-2.5 7.5t-2.5 7.5v8.5v14t0.5 13.5t0.5 7q3 4 3.5 6t0.5 6v43q0 8 -1 15.5t-1 15.5q-1 17 -0.5 33.5t0.5 33.5q1 37 1.5 73t1.5 72v19v5.5t3 4.5q5 1 15.5 -6.5
t15.5 -10.5l22 -16l22 -16l14 -10t12 -10q7 -5 13.5 -10.5t14.5 -10.5l2.5 -2t5.5 -4t5 -3t2 1q0 1 -3 4l-7 7t-8 7t-5 5q-9 6 -15 12q-6 4 -10.5 7.5t-9.5 7.5q-17 15 -35 32t-32 34q-4 6 -11.5 15.5t-8.5 16.5v7v13.5v14.5v10q1 12 1 23.5v24.5l170 -2v-48t1 -47
q1 -62 3 -120q0 -7 0.5 -13t0.5 -11h9t9 -2q19 -6 41 -16q9 -3 18 -8t17 -11q4 -4 9 -6.5t10 -6.5q2 -2 10.5 -9.5t12.5 -5.5t-2 8l-8 8q-8 8 -20.5 18t-17.5 19q-4 4 0 6q3 2 9 1.5t9 -0.5h24q7 -1 12 -1h11l-4 233l170 3l-5 -730l-151 -2v1q-1 13 -1 25t-1 23v18t5 15
q3 6 9 12.5t11 12.5q10 14 25 24l5 5l8 8l7.5 7.5t3.5 5.5q0 4 -4.5 2t-6.5 -3q-5 -3 -10.5 -7t-12.5 -7q-7 -5 -15.5 -11.5t-16.5 -8.5q-6 -2 -7.5 1.5t-1.5 8.5q1 13 8.5 30t14.5 28q5 8 8.5 12t9.5 10q8 5 11.5 8.5t10.5 7.5q3 2 8.5 5.5t11.5 7t10.5 7.5t4.5 6t-2 2
t-4.5 -1t-5 -2.5t-3.5 -1.5q-8 -5 -15.5 -9t-15.5 -8q-8 -5 -14.5 -9.5t-13.5 -9.5q-4 -2 -11 -7.5t-10 -4.5q-3 0 -3.5 3t-1.5 6q-1 29 -1 58.5t-1 58.5l-154 7l7 -343z" />
    <glyph glyph-name="I" unicode="I" horiz-adv-x="217" 
d="M187 765q0 -11 -0.5 -23t-0.5 -23q0 -7 5 -7.5t9 -0.5q5 1 12.5 0.5t5.5 -8.5q-1 -4 -6 -8.5t-11 -9t-10.5 -9.5t-4.5 -11v-19v-13.5t-2 -11.5q-2 -6 -7.5 -13.5t-13 -14.5t-15 -13.5t-12.5 -11.5q-8 -7 -15.5 -14t-14.5 -14q-5 -4 -9 -7.5t-9 -9.5q-1 -2 -6 -7.5
t-5 -7.5q1 -3 3.5 -1.5t3.5 2.5q5 4 10 9t11 10q8 6 17 12.5t17 14.5q8 5 18 10.5t20 7.5q7 1 7 -5v-18v-21v-48.5t-1 -48.5v-46t-1 -46q0 -23 -0.5 -47t-1.5 -48v-31q-2 -54 -2.5 -107t-1.5 -107l-150 1q-2 142 -3.5 282t-2.5 281q0 9 1.5 13.5t8.5 11.5q9 12 19 19.5
l22 16.5q11 6 21.5 13t20.5 14l17 8.5t17 9.5q6 3 11.5 5.5t11.5 5.5q2 1 9 4t14.5 7t14 7.5t6.5 5.5q2 3 -6 -0.5t-10 -3.5q-12 -7 -25 -13t-27 -11q-7 -2 -13.5 -5.5t-12.5 -7.5q-14 -5 -25.5 -11.5t-24.5 -14.5q-3 -1 -10 -4.5t-14.5 -6.5t-14.5 -4.5t-10 0.5q-2 2 -2 6
v6q-1 33 -1 66t-1 65z" />
    <glyph glyph-name="i" unicode="i" horiz-adv-x="222" 
d="M149 3h-19q-6 0 -7.5 -1.5t-4.5 -5.5q-4 -5 -9 -4.5t-10.5 3t-11.5 5.5t-12 3h-56q0 20 0.5 40t0.5 40q0 3 0.5 9t5.5 4q5 -3 10 -9t8 -11q5 -5 7.5 -9.5t7.5 -9.5q10 -11 19.5 -23.5t18.5 -24.5l7.5 -7.5t7.5 -4.5q3 1 -2 7.5t-7 7.5q-5 7 -9 13t-9 13q-11 14 -19 29
q-9 13 -16 28q-5 11 -9.5 21.5t-9.5 21.5q-8 20 -8.5 31t-0.5 32q0 7 1 8q4 4 10.5 -1.5t13 -13.5t12 -16.5t7.5 -11.5q4 -5 7 -11t7 -10q3 -5 5.5 -4.5t0.5 6.5q-5 15 -13.5 30t-15.5 29q-10 17 -22.5 37t-12.5 40q0 15 0.5 30.5t0.5 32.5q1 17 1 34.5t1 36.5q0 25 0.5 49
t1.5 47v95q0 30 0.5 59.5t0.5 61.5h151l18 -726h-48z" />
    <glyph glyph-name="J" unicode="J" horiz-adv-x="535" 
d="M497 307q-5 -53 -21 -106.5t-45 -98.5q-3 -5 -8 -2q-5 1 -12 7.5t-14 14.5t-13 15.5t-9 12.5q-24 31 -51 60q-8 8 -17 15.5t-17 15.5q-1 1 -6 5t-11 8.5t-10.5 8t-5.5 3.5q-2 0 -0.5 -2t2.5 -3q3 -4 8.5 -8t9.5 -7q8 -8 17 -16.5t17 -15.5q10 -10 19.5 -21.5t17.5 -21.5
q11 -16 22.5 -34t19.5 -35q3 -6 9 -19t3 -19q-2 -4 -12.5 -12.5t-14.5 -11.5q-30 -24 -65 -33.5t-73 -5.5l-1 1q-63 6 -106 41.5t-68.5 85.5t-35 109t-5.5 112l171 -13q-2 -35 2.5 -77t24.5 -70q20 -27 41 -22.5t35 30.5q5 7 1 15q-5 10 -14.5 20.5t-18.5 18.5q-2 1 -7 7
t0 8q4 3 14.5 -3.5t14.5 -9.5q1 -1 5.5 -3.5t9.5 -4.5t9 -2t6 5q2 8 3.5 15.5t3.5 15.5q0 7 8 7q3 0 9.5 -4.5t13 -10t12.5 -11t9 -8.5q8 -9 17 -18.5t17 -17.5q2 -4 9 -12t10 -9q2 -2 2 2q-3 5 -8.5 13t-9.5 12q-8 11 -16 20.5t-15 20.5q-8 7 -14 14t-11 15
q-6 7 -13.5 17.5t-10.5 18.5q-4 8 -3.5 11t1.5 11q5 67 4.5 134t-2.5 134q0 3 0.5 6.5t4.5 2.5t11 -7t14.5 -13t14 -14t9.5 -10q6 -6 11.5 -12.5t12.5 -11.5l1 -1l-2 3q-5 8 -10 14.5t-10 13.5q-6 9 -12 17t-12 18l-10 15t-11.5 19t-10 20t-4.5 17q-2 19 -2.5 37.5
t-1.5 38.5h49q8 0 15.5 -1.5t16.5 -2.5q11 -1 22.5 -0.5t24.5 0.5q6 1 12.5 2.5t13.5 2.5q6 0 11.5 0.5t11.5 2.5q2 1 3 -1t4 -2h5q-1 -6 -1.5 -8.5t-0.5 -10.5q0 -84 -1.5 -169t-5.5 -170q-1 -27 -2.5 -54t-4.5 -54z" />
    <glyph glyph-name="j" unicode="j" horiz-adv-x="530" 
d="M486 751l2.5 -25.5t6 -67.5t6.5 -96.5t4 -113.5t-1 -117.5t-9 -108.5q-6 -43 -19 -81t-34.5 -69t-54 -53t-78.5 -32q-28 -5 -56 -4.5t-55 6.5q-22 7 -44.5 17t-40.5 24q-3 2 -3 7.5t2 8.5q2 5 7 10.5t9 9.5q5 4 10.5 8t10.5 8q11 11 21.5 20t21.5 18q4 5 9.5 8t11.5 7
q6 5 12 9.5t14 9.5q8 6 16.5 13t16.5 11q7 5 13 8.5t12 8.5q2 1 9 5t8 6t-0.5 1t-2.5 -2q-8 -5 -15 -9t-15 -9q-8 -4 -14 -8t-14 -9q-8 -7 -17.5 -13.5t-17.5 -11.5q-9 -6 -17.5 -12t-16.5 -11q-11 -9 -22 -17.5t-22 -16.5q-5 -4 -11.5 -7t-10.5 -5q-5 -3 -12 -6.5t-13 -5.5
q-4 -1 -8.5 -2t-7.5 4q-5 7 -12 17.5t-12 18.5q-23 44 -29.5 94t-0.5 100l170 -22q-2 -12 -2.5 -26.5t2 -29t7.5 -27.5t15 -22q3 -4 8.5 -2.5t9.5 2.5q9 3 19.5 8.5t18.5 10.5l11 5.5t10 4.5q2 2 11.5 7t12.5 2q1 -3 -7 -9.5t-11 -7.5q-5 -4 -14.5 -11t-12.5 -12
q-5 -6 -5 -9t3 -3t8 1.5t9 3.5q8 4 15 11t13 15q6 7 7.5 11.5t1.5 8.5t-0.5 8t0.5 11q2 4 2.5 12t2.5 10q4 7 14.5 17t16.5 16q8 7 14.5 11t14.5 9q2 2 8.5 6t4.5 7q-3 4 -11 1.5t-11 -4.5q-9 -3 -17.5 -7t-16.5 -7q-3 -1 -7.5 -1.5t-4.5 5.5q0 7 0.5 13t0.5 11
q4 62 1.5 124t-5.5 123q-3 39 -6 76.5t-7 75.5q-2 6 1 7q2 2 3 2h39q11 0 18 1t17 6q8 2 14.5 3t14.5 5q4 2 3.5 -1t8.5 -1q5 1 10.5 1t11.5 1q5 1 11 2t14 2h3z" />
    <glyph glyph-name="L" unicode="L" horiz-adv-x="390" 
d="M207 769v-12t-1 -12q-2 -30 -3 -60t-3 -59q0 -6 -0.5 -12t-0.5 -12v-23.5t-1 -22.5q-1 -12 -1.5 -24t-1.5 -23q-3 -49 -5 -96.5t-5 -95.5q-2 -27 -3 -53.5t-3 -54.5q-1 -8 -6 -16.5t-10 -15.5q-5 -6 -12 -13t-13 -14l-36 -36q-7 -7 -14.5 -13t-13.5 -13q-2 -2 -10 -10.5
t-9 -10.5q-1 -4 2 -2.5t5 3.5q5 4 10 8.5t10 9.5q14 12 29.5 24.5t30.5 24.5q8 6 17.5 12.5t17.5 12.5q8 4 16.5 7.5t16.5 5.5h14t14 1h6t7 -1q4 0 1 -3q-1 -3 -8 -8.5t-16 -11.5t-17 -11.5t-11 -7.5q-8 -5 -15.5 -12t-14.5 -14q-8 -6 -15.5 -15.5t-14.5 -17.5q-1 -2 -6 -9
t-6 -8q-1 -2 0.5 -2t2.5 1q5 3 11 11.5t11 13.5q11 14 24 24.5t27 20.5q8 4 17 9t17 8q9 5 19 8.5t18 8.5q6 2 13 4.5t13 6.5q7 3 18.5 7t19.5 5q3 1 6.5 1h6.5q6 1 10.5 1t9.5 1l-1 -181l-341 2v28l-10 737z" />
    <glyph glyph-name="M" unicode="M" horiz-adv-x="782" 
d="M38 7v13t-1 12q0 24 -0.5 48t-1.5 47v24v24q-1 25 -1 49t-1 47q0 7 -0.5 13.5t-0.5 11.5q0 12 -0.5 23t-0.5 23q0 5 2 8t5 7q8 8 27.5 18.5t29.5 15.5q32 14 70 25q2 2 12.5 6.5t11.5 5.5q1 4 -6 2t-9 -2q-5 -2 -9 -3.5t-10 -3.5q-4 -2 -9 -3.5t-10 -2.5
q-17 -5 -34.5 -10.5t-34.5 -11.5q-7 -2 -16 -3.5t-17 0.5q-5 1 -4.5 3.5t0.5 7.5q-2 28 -2.5 55t-1.5 56q0 5 2 7.5t4 6.5q4 8 14 16.5t16 13.5q12 8 24.5 14t24.5 12q14 6 26 12t24 11q13 5 28 9.5t27 9.5q19 5 36 9.5t37 8.5q12 2 24 4.5t24 3.5q2 0 9 1t9 2q1 2 -1 2h-3
q-6 -2 -13 -2q-12 -1 -22.5 -2.5t-21.5 -3.5t-20 -4t-20 -5t-20.5 -5.5t-20.5 -5.5q-16 -5 -30 -9.5t-29 -9.5q-14 -5 -27.5 -11t-27.5 -12q-23 -7 -44 -17q-4 -1 -13 -4.5t-13 -0.5q-3 3 -3 7v9q-1 11 -1 22.5t-1 23.5q-1 24 -1.5 47.5t-1.5 46.5v40v1l170 5
q11 -27 21.5 -54.5t21.5 -53.5q2 -5 6.5 -6t9.5 -1q10 -1 21 0l22 2q10 1 19.5 2.5t20.5 1.5q3 0 11 0.5t10 -1.5q3 -2 0.5 -3.5t-6.5 -2l-8 -1l-4 -0.5q-14 -2 -27.5 -5.5t-26.5 -7.5q-6 -2 -16 -7t-15 -10q-1 -3 1 -7q2 -5 2 -6.5t-3 -5.5q-4 -6 -12 -11t-14 -8
q-31 -18 -61 -32q-13 -6 -32 -16.5t-26 -21.5q-3 -4 -5 -8t-6 -8q-2 -5 0 -5t4 3q5 5 7.5 11t11.5 11q14 12 37 20.5t40 15.5q17 8 34 12q6 2 16.5 4.5t16.5 1.5q7 -1 8 -3t3 -7l12 -30t12 -29q6 -17 13 -33.5t14 -33.5q8 -23 17.5 -45.5t17.5 -43.5q5 -11 9 -22.5t7 -22.5
q20 42 38 82t38 82q5 11 16 21t22 17q10 7 18.5 11t19.5 9q6 2 11 4.5t11 4.5q3 2 13.5 6t12.5 7t-1.5 2.5t-5.5 -0.5q-6 -1 -12 -3.5t-12 -4.5q-5 -1 -10.5 -2t-11.5 -2q-6 -2 -18 -5t-17 0q-4 3 -3 6.5t3 5.5q4 11 8.5 20.5t9.5 20.5q8 17 15 32.5t15 31.5q5 11 9.5 21.5
t9.5 21.5q4 6 6 10.5t4 8.5q5 10 8.5 19.5t8.5 18.5h171v-744h-171v103v19q2 11 2 19t-1 19t-1 22.5v22.5v1q0 9 2 9.5t4 6.5q2 8 -0.5 20t-4.5 20q-1 7 -1 18v18v94q-27 -71 -53.5 -141.5t-55.5 -142.5q-4 -6 -4 -12q1 -4 5.5 -7t5.5 -8l-1 -1q0 -2 -1 -1t-7 2
q-5 2 -13.5 2h-13.5q-29 3 -54 -4q-8 -1 -13 -1h-13q-18 -2 -35.5 -2.5t-36.5 -1.5l-89 246l7 -309z" />
    <glyph glyph-name="P" unicode="P" horiz-adv-x="507" 
d="M215 302q24 4 42.5 16.5t31 30.5t20 39.5t9.5 44.5q6 57 -18 101t-81 61zM210 6l-169 2q-6 134 -10 267t-9 267q0 11 7.5 20t15.5 17q10 8 21.5 17t22.5 16q10 6 21 10.5t23 9.5q1 1 6 2.5t10.5 3.5t10.5 4t6 4q1 3 -4 3q-4 -1 -16 -5t-17 -6q-38 -11 -76 -31
q-2 -1 -6.5 -3.5t-9.5 -4.5t-9.5 -2.5t-6.5 2.5q-2 2 -2 7v7v7q-1 5 1 8t5 7q5 9 18.5 22t22.5 18q15 9 27 17q15 10 37.5 19.5t39.5 16.5q14 3 32.5 4.5t32.5 1.5q11 1 18 0t18 -3q2 -1 7 -1.5t7 1.5q1 1 -1 1h-3q-9 2 -18.5 4.5t-19.5 2.5q-12 1 -27 0t-26 -2
q-18 -3 -36 -9t-35 -13q-12 -5 -21 -8.5t-20 -10.5l-16 -8t-16 -7q-3 -2 -12 -6.5t-13 -2.5q-3 2 -3 7v8l-2 42t-2 43q51 2 101.5 -1t101.5 -12q16 -4 29.5 -6t27.5 -7q4 -2 6.5 -3t5.5 -2q2 0 5 -1t5 -2q47 -17 86.5 -44t65.5 -69q4 -5 5.5 -8.5t3.5 -8.5q1 -2 0.5 -4
t-2.5 -2q-1 0 -4.5 1t-8 3t-8.5 4l-6 3t-7 3t-10.5 4t-11 3.5t-6.5 1.5q-3 -1 -1 -3l4 -4q5 -3 11 -5.5t10 -4.5q10 -5 16.5 -11t14.5 -14q6 -6 11.5 -16t9.5 -18q4 -10 7.5 -20.5l6.5 -19.5q6 -17 7 -27.5t0 -27.5q0 -19 -3 -37q-5 -55 -27 -104.5t-58 -88t-84 -62
t-105 -25.5z" />
    <glyph glyph-name="Q" unicode="Q" horiz-adv-x="646" 
d="M188 388q-1 -101 34 -163q7 -13 14.5 -20.5t18.5 -15.5q11 -9 21 -17.5t20.5 -16t22.5 -13t27 -7.5q6 -2 14.5 -2.5t15.5 -0.5q10 0 19 0.5t20 3.5q6 1 5.5 3t-6.5 3q-8 0 -14 -1t-13 0q-8 0 -20.5 2t-20.5 4q-5 2 -14 7.5t-10 12.5q-1 4 3.5 4.5t7.5 1.5q25 3 44 17.5
t30 36.5l1 2q19 35 26.5 81.5t8.5 92.5v17q0 21 -3.5 45.5t-11 47t-20.5 41.5t-34 30q-19 10 -38.5 11t-38 -5t-35.5 -18t-30 -27q-24 -28 -33 -64q-3 -6 -6.5 -5t-7.5 4q-5 5 -9 12t-9 12q-2 2 -5.5 6.5t-7.5 9.5t-8 9t-6 4q-5 0 -4.5 -3t1.5 -5q3 -5 7.5 -11t8.5 -11
q4 -9 7 -15.5t8 -15.5q2 -6 6 -13.5t7.5 -15t6 -15t1.5 -13.5q0 -8 -0.5 -14.5t-0.5 -12.5zM619 166l-4 -171l-310 6h-5q-3 0 -5 1q-70 4 -127.5 40t-92.5 96q-31 51 -45 115t-13 138q0 19 1.5 38t3.5 39q5 42 18.5 82t36.5 75q5 6 11 0q8 -4 16 -13t15 -16q5 -6 9.5 -12.5
t9.5 -14.5t9 -15.5t9 -15.5q5 -9 11 -16.5t13 -15.5q4 -5 4.5 -3.5t-2.5 6.5q-2 5 -5.5 10t-7.5 12q-12 20 -20 38q-3 5 -4.5 8.5t-3.5 6.5q-9 14 -16.5 27t-14.5 27q-2 6 -4 13.5t2 12.5q2 5 8 9.5t9 7.5q48 45 107.5 66t119.5 16.5t114.5 -35t91.5 -89.5
q30 -48 41.5 -103.5t13.5 -112.5v-22q-2 -63 -13 -128t-38 -119z" />
    <glyph glyph-name="S" unicode="S" horiz-adv-x="544" 
d="M350 551q-3 19 -12 34q-8 13 -23.5 23t-42.5 9q-17 -1 -36.5 -5t-33.5 -15q-4 -5 -2 -9.5t6 -6.5q7 -8 18 -14t21 -10q1 -1 5.5 -4.5t-0.5 -5.5q-2 -1 -6.5 0t-9.5 2.5l-10 3t-8 1.5q-2 0 -6.5 1t-9.5 1.5t-8.5 -0.5t-3.5 -4q2 -8 7.5 -17t10.5 -14q20 -24 50 -42t58 -33
q27 -15 55 -30.5t53 -35t44.5 -44t30.5 -56.5q2 -4 2 -7t-7 -3q-4 0 -13.5 3.5t-20.5 7t-21.5 7.5t-15.5 6q-14 5 -27.5 11t-27.5 11q-2 0 -8 1.5t-13 3t-12.5 2.5t-6.5 1q-3 -2 -1 -3t3 -2q6 -2 12.5 -3.5t12.5 -3.5q8 -3 15.5 -5t15.5 -7q14 -6 27.5 -13.5t29.5 -14.5
q11 -5 23 -12t23 -15q5 -5 12.5 -11.5t9.5 -14.5q1 -7 0 -20.5t-2 -21.5v-1q-5 -45 -26.5 -82t-54.5 -63t-74 -39t-85 -11q-52 2 -92.5 22t-68.5 53.5t-43 77.5t-15 94l171 2q0 -42 18 -60.5t39.5 -19t40 12.5t20.5 33q1 15 -7 28.5t-23 26t-34.5 24t-40.5 22.5
q-40 22 -78.5 47t-68.5 56.5t-49 71t-20 90.5v7.5t1 7.5q2 4 10 5t17.5 0.5t18.5 -2t13 -2.5q3 -2 13.5 -4.5t11.5 2.5q1 4 -9 8.5t-12 5.5q-11 5 -28.5 11t-25.5 13q-3 5 -2 9t4.5 5t6.5 1q14 0 27.5 -6.5t26.5 -11.5q7 -2 13 -4t13 -5q12 -6 24.5 -10.5t25.5 -9.5
q8 -3 17 -7t17 -8q2 -1 9.5 -4t16.5 -6.5t16.5 -6.5t8.5 -3q4 0 2.5 1.5l-2.5 2.5q-6 4 -13.5 7t-13.5 5q-6 3 -11 5t-12 4q-21 12 -45 21q-14 7 -26.5 13.5t-25.5 13.5q-14 5 -26 13.5t-23 16.5q-4 2 -9 7t-3 10q3 6 8.5 14t9.5 14q38 46 94 68.5t115 24.5q59 1 100.5 -15
t69.5 -40.5t44 -53.5t24.5 -54t11 -42l2.5 -17z" />
    <glyph glyph-name="T" unicode="T" horiz-adv-x="561" 
d="M347 617l28 -615l-205 -4v22v58.5t1 58.5v46v24v23q0 30 0.5 60t0.5 59v23v24v20v25v22v23v48q0 8 9 14.5t15 9.5q15 8 30.5 14.5t30.5 11.5q5 0 15.5 2.5t13.5 4.5q5 5 -2 5q-6 0 -16.5 -1.5t-15.5 -3.5q-11 -2 -21 -4t-21 -4q-5 -2 -18.5 -4.5t-17.5 1.5q-2 3 -2 7v7v4
q1 4 7.5 8.5t14.5 8.5t15.5 7t11.5 4q14 5 28 9.5t29 7.5q13 2 27.5 3t28.5 2q7 0 11 -0.5t12 -2.5q2 0 7 -0.5t3 2.5q0 2 -4 2h-6q-8 2 -13.5 2.5t-13.5 0.5q-14 0 -31 -0.5t-31 -2.5q-13 -2 -26 -5.5t-27 -6.5q-23 -5 -46.5 -10.5t-47.5 -8.5q-11 -2 -22.5 -4t-23.5 -2
q-11 0 -22 -0.5t-22 -0.5h-11l-4 147l519 19l4 -156z" />
    <glyph glyph-name="t" unicode="t" horiz-adv-x="563" 
d="M360 598v-9.5t1 -9.5v-23q0 -18 0.5 -36.5t0.5 -37.5q0 -7 -1.5 -17.5t-3.5 -16.5q-5 -16 -20 -36t-26 -33q-6 -8 -12.5 -15t-13.5 -15q-13 -11 -24.5 -23.5t-23.5 -25.5q-10 -8 -22.5 -27t-18.5 -30q0 -2 -4.5 -13.5t-5.5 -13.5q0 -2 1.5 -1t2.5 3q2 4 4.5 11t5.5 13
q7 12 20 29.5t24 27.5l25.5 25.5t26.5 23.5q13 11 24.5 23t22.5 21q3 2 10 6.5t9 -1.5v-48q1 -11 0.5 -16.5t-4.5 -16.5q-5 -14 -16 -28.5t-21 -26.5q-2 -3 -8.5 -11.5t-4.5 -11.5q1 -3 4 -2t6 3.5t6 5.5l4 4q5 6 11.5 11.5t14.5 8.5q8 4 8.5 -1.5t0.5 -11.5v-24
q1 -18 1 -35.5v-35.5q0 -5 0.5 -11t0.5 -12v-19v-24q1 -12 1 -24v-24v-49l-204 4q2 35 3 71l2 72q1 17 1.5 33.5t0.5 33.5v13t1 12q2 19 2 37t2 36v2v31q1 9 5.5 18.5t9.5 17.5q5 9 11 16.5t12 15.5t12 14.5t12 14.5q7 7 12.5 14.5t10.5 13.5q1 1 4.5 6.5t-0.5 4.5
q-2 0 -5.5 -4t-8 -8.5t-8.5 -9t-6 -6.5q-3 -3 -10 -9.5t-14.5 -13t-14.5 -11.5t-10 -6t-6 0t-3 4v7.5t1 8.5v22q2 35 3.5 71t2.5 71l-162 -4l-5 150l520 18l6 -157z" />
    <glyph glyph-name="s" unicode="s" horiz-adv-x="538" 
d="M188 209q1 -18 10 -32q8 -12 23 -22t42 -9q12 0 26.5 2.5t27 8.5t20.5 15.5t8 24.5q0 19 -14 36.5t-33 32t-39.5 26.5t-34.5 20q-4 1 -14 6.5t-20.5 11t-19.5 10.5t-10 7q-4 5 -1 10q4 8 13.5 14.5t17.5 11.5q6 4 13 7t12 6q10 5 19 8.5t19 8.5q2 1 12 5t8 6t-12 -1.5
t-12 -4.5q-10 -2 -19 -5.5t-19 -7.5q-6 -3 -11 -5t-11 -4q-8 -3 -17 -6.5t-17 -8.5q-6 -2 -14.5 -5t-13.5 -3t-7.5 1.5t-7.5 5.5q-48 38 -65.5 84.5t-10.5 107.5q5 44 26 80t52.5 61.5t71 38.5t82.5 11q50 -3 89 -22.5t66.5 -52t42 -75t14.5 -91.5l-166 -1q0 24 -5.5 38
t-12 21.5t-12 10t-6.5 4.5q0 2 2 6q2 2 11.5 3t12.5 1q11 -1 25.5 -3.5t25.5 -7.5q2 0 9 -1.5t7 2.5q0 2 -5.5 3.5t-7.5 2.5q-7 2 -12.5 3.5t-13.5 3.5q-20 4 -33.5 5t-34.5 -2q-11 -2 -22 -7t-19 -14q-6 -4 -10 -10q-11 -12 -12 -25q-2 -16 6 -29t22.5 -25t33.5 -23t40 -22
q2 -2 8 -5t12.5 -6.5t12 -6.5t6.5 -5q2 -4 -4 -9t-17.5 -6.5t-19.5 -2.5q-17 -6 -31.5 -11.5t-31.5 -13.5q-2 -2 -9 -6t-9 -5q-2 -3 0 -4t4 0q7 2 14 6t14 7q13 5 29.5 10t30.5 7h14t13 1q11 1 24.5 0t24.5 -4q7 -2 13.5 -7.5t12.5 -11.5q45 -36 70 -80.5t27 -103.5
q1 -51 -19 -91t-54.5 -68t-79 -43.5t-92.5 -15.5q-42 -1 -75 8t-58.5 24t-43.5 34.5t-30 39.5q-29 48 -37 109z" />
    <glyph glyph-name="q" unicode="q" horiz-adv-x="651" 
d="M25 365q-1 71 13 132.5t44 110.5q5 8 10.5 15.5t12.5 14.5q36 45 85.5 70.5t103.5 31.5t107.5 -9t97.5 -52q11 -8 19 -16.5t16 -19.5q5 -10 11 -16t15 -14q5 -5 5 -7q0 -5 1 -7t3 -7q2 -2 3.5 -5.5t2.5 -6.5l8 -16t6 -15l12 -40q3 -11 5 -21q2 -5 3 -9.5t1 -10.5
q2 -4 2.5 -7.5t0.5 -9.5q5 -26 6.5 -49t2.5 -49v-20q-2 -57 -15 -111.5t-42 -101.5l62 -52l-111 -99l-54 60l-2 -1q-61 -31 -129 -27.5t-128 32.5q-75 38 -119.5 104.5t-53.5 150.5q-2 18 -3 37.5t-2 39.5zM201 305q2 -26 12.5 -50t28.5 -44q16 -19 38 -31t45 -15t45.5 4.5
t40.5 28.5q2 1 3.5 3.5t3.5 3.5q2 3 6.5 1.5t9 -5t8.5 -7.5t6 -7q2 -2 9 -9.5t11 -3.5q1 1 -0.5 6t-4.5 11t-6 11t-4 7q-5 8 -10.5 20t-3.5 20q6 21 8.5 41.5t3.5 43.5q0 3 -0.5 6t1.5 5q2 6 8 1.5t8 -6.5q11 -11 21 -22l20 -22q7 -8 14.5 -16.5t15.5 -16.5q4 -7 10.5 -14
t11.5 -13l2 -3.5t4.5 -7t4.5 -6t3 -0.5q0 2 -3 6.5t-4 6.5q-5 10 -11.5 17.5t-12.5 16.5q-4 7 -9 12.5t-10 11.5l-22 28t-21 28q-5 7 -10.5 17.5t-11.5 21.5t-10.5 21.5t-5.5 18.5q-6 51 -28 95l-1 1q-11 20 -30 36q-5 3 -9.5 7t-9.5 7q-10 8 -20.5 14t-21.5 13l-52 32
q-12 6 -23 12.5t-23 11.5q-3 2 -12.5 5.5t-10.5 1.5q-2 -1 0.5 -3t6 -4t7 -3.5t4.5 -1.5q11 -7 22 -13t22 -14q8 -6 16.5 -12.5t16.5 -13.5l3.5 -3.5l5 -5t3.5 -5t-1 -3.5q-4 -2 -14 4t-18 5q-9 -2 -7 -10t1 -11q-2 -3 -7.5 -1.5t-12 5t-12.5 7.5t-8 5q-5 4 -11 7t-13 8
q-2 1 -6 3.5t-9.5 5t-10 4t-5.5 0.5q-5 -2 -0.5 -5.5t6.5 -5.5q7 -5 11.5 -7.5t9.5 -7.5q20 -15 32 -33q2 -5 4 -9t-1 -7t-5 -6t-4 -7q-17 -28 -25.5 -68t-7.5 -89q0 -14 1.5 -29t3.5 -32z" />
    <glyph glyph-name="p" unicode="p" horiz-adv-x="520" 
d="M500 411q-2 -40 -12 -77.5t-30 -72.5q-3 -5 -6 -5.5t-8 0.5q-8 1 -23.5 7.5t-23.5 8.5q-10 4 -19 8t-19 8q-8 3 -17.5 6.5t-18.5 6.5q-7 2 -8 0t5 -5q7 -4 14.5 -7.5t14.5 -7.5q7 -3 14 -5.5t14 -7.5q8 -4 16 -9t15 -10q5 -4 14 -12.5t8 -13.5q0 -2 -2.5 -5t-4.5 -5
q-5 -5 -11 -4t-11 4l-17 8.5t-16 8.5q-13 8 -25 16.5t-24 16.5t-24 17t-24 17q-5 4 -11.5 8t-12.5 7q-14 9 -28.5 17.5t-29.5 16.5q-1 1 -3 1.5t-2 -0.5t2 -3q6 -4 12.5 -7.5t11.5 -7.5q10 -5 17.5 -10l16.5 -11q16 -10 30 -20q19 -15 37.5 -29.5t37.5 -29.5q7 -5 18 -15.5
t15 -17.5q2 -4 5.5 -8.5t0.5 -8.5q-2 -2 -11.5 -9t-13.5 -9q-38 -26 -80.5 -37.5t-87.5 -13.5v-96h-172q0 48 0.5 95.5t0.5 95.5q0 94 0.5 188t0.5 188q0 11 11 8q11 -4 26 -16t23 -20q2 -3 7 -9.5t9 -3.5q2 2 -2 8t-5 8q-14 21 -33.5 38.5t-31.5 40.5q-4 7 -3.5 12.5
t0.5 12.5v100q48 3 103 -1.5t108.5 -19t102 -40.5t85 -65.5t57.5 -94.5t18 -128zM196 369q0 -8 -3.5 -9t-8.5 -5q-6 -4 -5 -9t4 -9.5t7 -9.5t5 -9q1 -3 1 -17v-19v-1q9 1 20.5 3t19.5 5q5 2 5 4.5t-3 6.5q-8 14 -22.5 22t-27.5 18q-2 2 -4.5 4t0.5 4q1 3 8 0t10 -5
q11 -6 22.5 -11.5t23.5 -11.5q6 -2 17 -6t17 1q11 7 19.5 19.5t13.5 23.5q14 30 14 59q1 31 -8 58.5t-26.5 49t-42.5 36.5t-56 21v-213z" />
    <glyph glyph-name="m" unicode="m" horiz-adv-x="782" 
d="M578 11v3v45.5t1 44.5q1 35 1 69.5v69.5q0 5 0.5 11t0.5 11v24.5t1 23.5q0 8 1 16.5t0 16.5t-0.5 15t0.5 13q-2 -3 -4.5 -5.5l-4.5 -4.5q-2 -4 -2 -8.5t1 -8.5q3 -10 0 -14.5t-15 -3.5h-11q-8 -1 -14.5 2.5t-13.5 5.5l-27 13.5t-26 13.5q-18 7 -37 18q-2 1 -9 5t-9 1
q-1 -2 6.5 -7t9.5 -7q8 -4 14 -7.5t13 -8.5q13 -8 27 -17.5t25 -19.5q4 -4 11.5 -13t4.5 -14q-1 -1 -5.5 -8.5t-6.5 -9.5q-23 -35 -48 -71t-51 -68l-211 255l6 -392h-171l-11 744h171q25 -38 48.5 -76.5t48.5 -77.5q13 -20 25 -39t25 -39q6 -11 12 -20t13 -19q11 -20 26 -41
l12 -21l1 -1q1 1 1.5 2t1.5 2q0 1 2 5t4.5 8.5t4.5 8.5l2 4q4 3 10.5 0t8.5 -5q7 -5 15 -10t14 -10q14 -11 26.5 -21.5t24.5 -21.5q14 -8 24 -20q5 -4 10.5 -8.5t10.5 -7.5q0 -1 2.5 -2t1.5 1q0 2 -5 7l-11 11t-11.5 11t-7.5 6q-13 14 -26.5 26.5t-26.5 26.5
q-7 5 -11.5 10.5t-9.5 10.5q-3 5 -8.5 12.5t-7.5 11.5q-1 5 -2 9t2 9q27 54 54 107.5t54 107.5q2 4 4.5 10t5.5 11q5 11 11 21.5t11 21.5l170 -5l-6 -753z" />
    <glyph glyph-name="l" unicode="l" horiz-adv-x="361" 
d="M212 761q0 -67 -1 -133t-3 -132q0 -8 2.5 -14t6.5 -14q1 -2 3 -6.5l4 -9t3.5 -9t0.5 -6.5q-2 -6 -6 -5t-9 3q-8 3 -14 4.5t-15 6.5q-11 5 -21 11.5t-23 9.5q-2 1 -9.5 3t-6.5 -3q1 -3 9.5 -8t13.5 -7q13 -8 29.5 -22.5t23.5 -28.5q4 -7 5.5 -11t1.5 -12v-1
q0 -14 11.5 -27t18.5 -24q5 -8 1.5 -9.5t-11.5 0.5q-4 2 -12 4.5t-9 -2.5q0 -1 -0.5 -6.5t-0.5 -12v-12.5v-8v-23t-1 -25t-1 -26.5v-27.5l140 11l-1 -170l-314 4v96q-2 82 -3 168q0 11 -0.5 23.5t-0.5 24.5v22v24.5t-1 23.5q0 20 -0.5 39.5t-0.5 39.5q0 6 6 6q5 0 17 -8.5
t26 -20.5t26 -23.5t17 -15.5q11 -9 23 -19l24 -20q8 -7 15.5 -13t15.5 -13q8 -8 16.5 -14.5t16.5 -14.5q1 -2 5 -5.5t6 -3.5q2 -1 1 1t-3.5 4.5t-5 4.5l-2.5 2q-8 8 -16.5 15.5t-16.5 15.5q-10 8 -19 16l-18 16q-11 9 -21.5 18t-20.5 20q-11 13 -23.5 25.5t-23.5 25.5
q-5 5 -13 14t-15 18.5t-12.5 19.5t-5.5 17q0 17 -0.5 34t-0.5 34q0 3 0.5 6.5t3.5 3.5q6 0 17 -10t15 -14q11 -10 20 -19.5t19 -20.5q10 -9 20.5 -19t19.5 -19q11 -11 20 -19.5t18 -18.5q8 -6 15 -13.5t13 -13.5q10 -16 19 -23q4 -5 5 -4.5t-3 4.5q-7 10 -13 18.5t-14 16.5
l-26 26q-14 13 -25.5 26t-25.5 27q-13 11 -23 26q-14 17 -28.5 34t-26.5 35q-5 8 -12.5 21.5t-8.5 23.5v23v11.5t-1 12.5v24v3z" />
    <glyph glyph-name="U" unicode="U" horiz-adv-x="586" 
d="M217 737q-6 -42 -10.5 -84t-7.5 -84q-1 -14 -2 -27t-2 -25q0 -6 2.5 -11.5t4.5 -10.5q4 -8 8.5 -16t10.5 -16q6 -11 12 -19t13 -16q1 -2 4 -7.5t-1 -6.5q-3 0 -11.5 9t-11.5 12l-5 5t-8.5 8t-9 7t-5.5 2q-3 -2 -4 -2.5t-1 -8.5q-3 -66 3 -134q5 -53 22.5 -84.5
t41.5 -44.5q16 -9 35 -9q20 2 37 10q22 14 33.5 36.5t16.5 46.5q1 5 10 4q9 -2 19 -6.5t18 -9.5q8 -6 17 -10.5l17 -8.5q2 0 7 -2t5 1q0 4 -10 10.5t-14 8.5q-8 5 -15 11l-14 12q-10 8 -17 15.5t-12 18.5q-4 8 -4 14.5v16.5q2 97 0.5 195t-8.5 195q-1 10 -1.5 19t-1.5 18
l172 14l2.5 -36.5t5 -100t3.5 -150t-2 -186.5q-1 -50 -12 -92.5t-30 -76.5t-44 -60t-53 -43q-55 -32 -120 -35q-62 -2 -121 28q-59 31 -103 97.5t-52 168.5q-4 46 -4.5 91t1.5 93q1 7 4.5 6.5t8.5 -2.5q12 -5 22.5 -12t21.5 -14q9 -8 19 -18.5t19 -19.5l6.5 -6.5t7.5 -0.5
q0 1 -2 4t-5.5 7t-6.5 7l-4 4q-8 8 -15 17t-16 17q-8 6 -14.5 13.5t-14.5 14.5q-5 5 -13.5 15t-11.5 16q-3 7 -3 10.5t1 10.5q0 3 0.5 6.5t0.5 6.5t0.5 9l1 12t1 11.5t0.5 6.5q2 4 5 3.5t5 -2.5q9 -4 20.5 -11.5t23 -16.5t21.5 -17.5t17 -14.5q11 -10 22 -18t22 -19
q16 -15 32 -32q7 -9 15 -18.5t16 -17.5q1 -1 4 -4.5t6.5 -7.5t6.5 -7l4 -4q2 -1 1.5 0.5t-1.5 2.5q-3 5 -8 10.5t-9 9.5q-7 8 -14 17t-14 17q-5 5 -9 11t-10 11l-17.5 17.5t-18.5 16.5q-20 17 -38 35.5t-35 35.5q-5 4 -11.5 11t-13.5 15t-12 15.5t-5 13.5q-1 3 0 11t2 12
q2 22 4.5 43t6.5 41z" />
    <glyph glyph-name="V" unicode="V" horiz-adv-x="622" 
d="M206 763q1 -6 2 -11.5t2 -11.5q2 -6 3 -12t3 -12q2 -12 4 -20q1 -12 4 -22q2 -11 4.5 -23t4.5 -24q0 -2 1 -8t2.5 -12t2.5 -11t1 -6q4 -5 15.5 -2t16.5 5q6 4 11.5 6t11.5 6q4 2 12.5 5.5t10.5 1.5q2 -1 0.5 -3.5t-4.5 -4.5t-5.5 -4t-3.5 -3q-5 -4 -8.5 -6.5t-8.5 -5.5
q-3 -2 -8 -6t-10.5 -9t-10.5 -9.5t-6 -7.5q-3 -5 -2.5 -8t1.5 -10q3 -17 6.5 -34t6.5 -35q2 -13 5 -24.5t5 -23.5q2 -6 2.5 -11.5t2.5 -11.5q7 -35 13.5 -70.5t14.5 -70.5q1 -7 2 -13t2 -11q2 -5 2.5 -10.5t1.5 -10.5v-1q12 53 23 106t23 105q2 7 3 12.5t3 11.5
q8 43 17.5 85.5t18.5 85.5q4 18 16.5 25.5t25.5 18.5q2 2 4.5 6t-2.5 6q-4 1 -9.5 0.5t-10.5 -0.5t-8 1.5t-1 7.5q5 26 9.5 49.5t9.5 46.5q0 2 0.5 2.5t0.5 2.5l168 -39l-202 -741q-45 -2 -90 -2.5t-90 -2.5q-9 0 -9 5q-1 5 8 12.5t11 10.5q6 5 11.5 8.5t10.5 8.5q1 1 6 4.5
t9.5 8l8 8t3.5 5.5q-1 2 -4 1.5t-6 -2.5t-6 -4.5t-4 -2.5q-5 -4 -10 -7.5t-11 -6.5q-8 -5 -13.5 -8.5t-13.5 -7.5q-5 -3 -17 -9t-18 -4q-2 1 -4 10q-8 32 -15.5 66t-15.5 67q-4 17 -7.5 35t-7.5 36q-2 5 -3.5 11t-3.5 12q-2 11 -5 23t-5 23q-3 12 -5.5 23.5t-4.5 24.5
q-2 7 3 15q3 5 10.5 12t14.5 10q8 5 15 10.5t15 10.5q6 4 12 7.5t14 7.5q2 1 12 6.5t9 8.5t-8 0.5t-9 -3.5q-7 -3 -13 -5.5t-12 -6.5q-8 -4 -15.5 -7.5t-15.5 -7.5q-7 -2 -14 -4.5t-13 -4.5q-3 -2 -9 -3t-8 4q0 1 -2.5 11.5t-5.5 23.5t-5.5 24t-2.5 13q0 5 5 10l9 9
q6 5 15.5 10.5t16.5 8.5q14 8 26.5 14t26.5 12q11 5 23.5 10.5t23.5 11.5q6 3 12.5 6.5t14.5 7.5q8 5 15 9t16 9q5 3 9 5.5t8 6.5q3 1 11.5 5.5t9.5 6.5q1 3 -3 1l-6 -3q-5 -2 -10 -5l-10 -6q-4 -3 -7.5 -5t-8.5 -4q-8 -5 -15 -8t-15 -7q-8 -5 -15.5 -9t-16.5 -8
q-13 -6 -25.5 -10.5t-25.5 -10.5q-10 -3 -19.5 -6.5t-20.5 -6.5q-7 -2 -13 -4t-14 -4q-4 -1 -14 -4t-14 2q0 1 -1.5 7.5t-3.5 14.5t-3.5 15t-1.5 9q-5 23 -10.5 46t-10.5 46q-3 12 -5.5 24t-5.5 24q-2 11 -4.5 22t-4.5 22z" />
    <glyph glyph-name="W" unicode="W" horiz-adv-x="788" 
d="M186 772q1 -6 1 -11.5v-10.5q2 -5 2 -11.5t1 -11.5q2 -18 2.5 -36.5t2.5 -35.5q1 -11 1 -22.5t1 -23.5q1 -5 1 -11.5t1 -12.5q2 -12 2.5 -24.5t1.5 -24.5q0 -5 0.5 -9.5t0.5 -9.5q1 -6 1 -12.5t1 -11.5q0 -5 2 -6t6 -2q5 -1 16.5 0.5t24.5 3.5t25.5 4.5t18.5 4.5
q20 5 39 10t39 10q6 2 11.5 3t13.5 3l14 4t15 4q2 1 9.5 4t9.5 2q2 -2 -0.5 -3t-3.5 -2q-8 -3 -17 -6t-17 -5l-14 -4t-15 -4q-10 -2 -20 -5.5t-19 -6.5q-19 -5 -38.5 -11.5t-38.5 -12.5q-5 -2 -14.5 -5.5t-19.5 -8.5t-17 -11t-7 -12q0 -5 0.5 -10t0.5 -10q1 -5 1 -15v-3
l1 -11l3 11q2 11 5 22t5 22q3 9 12 14t15 9q11 5 23.5 9t23.5 8q20 7 39 13t39 12q6 2 11.5 3t12.5 3q13 4 30 9q2 1 10 4t9 4q1 3 -1.5 3t-6.5 -1.5t-7.5 -3l-3.5 -1.5q-7 -2 -11.5 -3t-9.5 -3q-8 -2 -14.5 -3t-13.5 -3q-9 -2 -18 -4.5t-17 -4.5q-14 -4 -27.5 -7.5
t-27.5 -5.5q-4 -1 -12 -2.5t-16 -2t-15 0t-10 3.5q-1 2 0 5t2 5q2 12 5 23.5t5 22.5q6 22 11.5 43t10.5 43l218 -9l69 -255l40 395l170 -18l-75 -742l-213 -3l-99 363l-91 -367l-228 10q-1 12 -1.5 23.5t-1.5 23.5q0 11 -0.5 22.5t-1.5 22.5q-1 4 -1.5 10t1.5 8q2 5 11 13
t14 11q16 9 31 16t32 14q3 2 14 7.5t12 8.5q2 3 -2 3t-5 -1q-7 -3 -13 -6t-14 -5q-12 -4 -24.5 -7.5t-23.5 -7.5q-5 -2 -17.5 -4t-16.5 0t-4 9q-1 18 -2 36.5t-2 36.5q-1 10 -1.5 19t-1.5 20q0 8 12 15q6 4 15 8t19.5 8t21 7l17.5 5q37 14 80 25q17 4 32 9t31 9q10 3 19 5.5
t19 4.5q12 2 21.5 5.5t20.5 8.5q4 0 4 2q2 2 -1.5 1t-4.5 -1q-8 -2 -14.5 -5t-14.5 -5t-16 -3.5t-16 -3.5q-14 -4 -27 -7t-26 -7q-22 -7 -44 -12t-43 -10q-9 -3 -21.5 -6t-26 -6t-26 -5t-21.5 -1q-4 0 -8 1t-5 5v9.5t-1 8.5q0 6 -0.5 12t-0.5 12q-1 4 0.5 6t3.5 5q2 2 7 5.5
t11 7t11.5 6.5t8.5 4q7 3 12 6t11 5q13 6 24 11.5t24 10.5q19 9 39.5 16.5t40.5 13.5q16 5 32.5 9.5t33.5 9.5q20 6 38.5 11.5t38.5 11.5q6 2 11.5 3t12.5 3t14.5 4t15.5 4q2 1 10 3.5t9 3.5v2v1h-1q-2 -2 -10.5 -4.5t-12.5 -3.5q-11 -3 -20.5 -6t-19.5 -5q-13 -2 -25 -5.5
t-24 -7.5q-19 -5 -37 -10.5t-37 -10.5q-21 -5 -41 -11t-41 -13q-14 -5 -28 -11t-28 -11q-23 -9 -50 -15q-8 -3 -17.5 -5t-16.5 0q-3 2 -3.5 5t-0.5 6q-5 83 -11 165t-11 165z" />
    <glyph glyph-name="X" unicode="X" horiz-adv-x="661" 
d="M204 769q18 -33 37 -66t37 -66q2 -5 4 -6t8 0q16 3 26 11t22 17q2 2 7.5 4.5t5.5 -2.5q0 -2 -2.5 -6t-6.5 -8.5t-8 -8.5l-5 -5q-5 -5 -14.5 -16.5t-11.5 -16.5q-2 -6 -0.5 -9t4.5 -8q6 -11 12.5 -23t12.5 -24l170 249l143 -97l-223 -316q8 -15 17 -31t17 -31
q4 -8 8.5 -16t8.5 -16q3 -5 1 -9t-5 -9q-8 -13 -21.5 -25t-24.5 -23t-23.5 -21.5t-24.5 -21.5q-17 -16 -34.5 -30.5t-34.5 -29.5q-5 -5 -10 -9.5t-11 -9.5q-7 -6 -13.5 -12.5t-14.5 -12.5q-2 -1 -7 -5t-6 -6t1 -1t3 1q4 3 9 7t10 7q5 5 9.5 9t9.5 8q8 6 15.5 13t15.5 14
q15 13 30.5 25t32.5 25q12 11 24.5 21t25.5 21q4 3 12.5 8.5t17.5 11.5t17 10.5t13 4.5q6 0 7 -2l3 -6q25 -45 49 -89.5t48 -89.5l-150 -73q-6 11 -12.5 21t-11.5 20q-9 16 -18 31t-17 31l-6 10t-7 11l-5.5 11t-6.5 10q-2 2 -7 1t-11 -3t-11 -5t-7 -4q-8 -6 -14.5 -11
t-13.5 -11q-7 -5 -13.5 -10.5t-12.5 -10.5q-2 -1 -6 -4t-8.5 -6t-8.5 -5.5t-5 -2.5q-3 0 -1.5 2.5t4.5 5.5t6 5.5t4 3.5q8 6 14 12.5t13 12.5t12.5 12t10.5 11l8.5 8.5t11 12t9.5 12.5t4 11q-1 3 -3.5 8.5t-4.5 7.5q-5 9 -11 18.5t-11 17.5l-165 -236l-132 89l207 307
q-2 2 -6.5 10t-9.5 16.5t-9 15.5t-4 8q-1 8 6 17q7 12 18 22q6 6 15 13.5t17 12.5q7 6 14.5 11t15.5 11q4 3 8.5 5.5t9.5 4.5q2 2 6 4.5t5 4.5q2 4 -6 0t-9 -5l-11 -5.5t-10 -5.5q-8 -5 -15 -9t-15 -9q-18 -11 -33 -21l-18 -9t-18 -4q-2 2 -3 4t-3 4q-2 4 -4 6q-4 8 -5 11.5
t4 10.5q5 10 20.5 23t25.5 21t20 16.5t22 17.5q10 8 19.5 16t19.5 16q8 6 15 11t14 12q13 11 28 27q1 1 3 2.5t2 2.5q0 3 -4 0t-5 -4q-11 -11 -20.5 -19.5t-21.5 -17.5q-7 -4 -12 -7.5t-10 -7.5q-22 -18 -45 -32q-9 -8 -17.5 -14.5t-19.5 -12.5q-9 -5 -25.5 -15.5
t-27.5 -10.5q-5 0 -6.5 2l-4.5 6q-2 5 -5.5 11t-7.5 11q-7 11 -11 21q-3 5 -6 9.5t-5 9.5q-3 6 -6.5 11.5t-6.5 10.5q-14 26 -29.5 52.5t-30.5 53.5z" />
    <glyph glyph-name="Y" unicode="Y" horiz-adv-x="664" 
d="M208 749q-11 -80 -15 -142.5t10 -97.5q5 -14 15.5 -22.5t23.5 -13.5t27 -7t27 -3q14 -1 26 5.5t23 14.5q21 13 39 28q8 7 16 13.5t16 13.5q2 2 7 4.5t5 -1.5q0 -2 -4.5 -7.5t-10 -11t-11 -10.5t-7.5 -7q-5 -5 -16.5 -17t-13.5 -18q-1 -7 8 -5q7 1 18 3.5t18 5.5
q21 8 34 20.5t21 33.5q2 6 2.5 12t2.5 13q2 13 14 31t19 29l2 3.5t3 6.5t1 4.5t-4 -1.5q-5 -5 -8.5 -9.5t-9.5 -9.5q-3 -2 -8 -4.5t-7 2.5q-1 2 -1.5 10t-0.5 12q-2 29 -7.5 59t-12.5 60l168 35q17 -77 23.5 -154.5t-13.5 -149.5q-20 -69 -70 -118t-141 -66l1 -293h-171
l-1 291q-19 3 -38.5 8t-37.5 13q-8 2 -5 7q1 4 6 10t11 12t12 11t10 8q20 16 39 30.5t39 28.5q14 10 27 19.5t25 21.5q18 16 36.5 30t35.5 30q4 5 8.5 9.5l9.5 9.5q6 5 2 2t-6 -5q-18 -15 -36 -33q-9 -8 -18.5 -15.5t-18.5 -15.5q-11 -8 -20.5 -15t-20.5 -16
q-20 -15 -41 -29l-42 -28q-7 -4 -19.5 -12.5t-26 -17t-26.5 -14.5t-21 -5q-4 0 -7 2.5t-6 5.5q-2 1 -8.5 6t-7.5 7t2.5 6t8.5 8t10 7t7 4q9 5 18 9.5t18 9.5q3 2 12 6t11 6q2 5 -7.5 2.5t-11.5 -3.5q-11 -3 -20 -6.5t-20 -6.5q-8 -2 -17.5 -5t-17.5 -5q-5 -1 -12 -2t-11 4
q-7 9 -13.5 21t-10.5 23q-2 3 -2.5 6t-2.5 6q-23 66 -19.5 146.5t15.5 178.5z" />
    <glyph glyph-name="Z" unicode="Z" horiz-adv-x="576" 
d="M72 790l479 -18l-10 -140l-333 -493l313 21l-3 -171l-482 8q-4 32 -8 64.5t-9 64.5q5 5 8 10.5t7 10.5q9 15 18.5 30t19.5 30q11 20 26 41q2 6 5.5 11t6.5 10q10 15 19 30t20 29q14 26 31 50q5 8 11.5 12.5t15.5 9.5q5 3 12.5 6t13.5 5q12 5 24.5 11t24.5 11
q14 6 27.5 14t26.5 15q17 8 33 17t35 16q2 1 8.5 3.5t6.5 4.5q1 2 -3.5 0.5t-5.5 -1.5q-20 -7 -37.5 -15.5t-36.5 -18.5q-8 -4 -16.5 -7.5t-16.5 -7.5q-13 -7 -28 -11.5t-29 -8.5q-3 -1 -15 -2.5t-13 3.5q0 5 2 7.5t4 6.5q3 7 6.5 12t6.5 10l6 10t8 9t13.5 7.5t14.5 6.5
q5 3 12.5 6.5t13.5 5.5q10 4 18.5 7t17.5 7q14 5 24 11q2 0 7 2.5t2 4.5q-2 1 -7.5 0t-12.5 -3t-13 -4.5t-8 -3.5q-7 -2 -22 -5t-22 -2q-11 1 -10.5 4t5.5 11q11 14 18 28q9 14 18.5 28.5t17.5 29.5l-272 -11z" />
    <glyph glyph-name="z" unicode="z" horiz-adv-x="572" 
d="M498 -3l-479 18l10 133q8 11 16.5 23t16.5 24q5 8 21 21t25 19q6 5 13 9.5t14 9.5q7 4 12.5 7.5t12.5 6.5q8 5 16.5 9.5t17.5 7.5q6 3 11 5t10 5q7 3 18.5 7.5t20.5 6.5q6 2 11.5 3t12.5 2q5 1 16 2.5t13 3.5q6 3 -1 3q-3 -1 -8 -1.5t-8 -1.5l-24 -3q-7 -2 -14 -3t-15 -4
t-15 -5.5t-15 -5.5q-9 -4 -18 -7q-8 -2 -16.5 -6t-16.5 -8q-1 0 -8 -3.5t-15 -6.5t-14 -4t-4 3q2 5 2 6.5t3 6.5q11 14 21.5 29t21.5 31q6 8 15 12.5t18 9.5q13 8 28 12t30 9q10 4 21.5 5.5t21.5 3.5q3 1 13 3t12 4q1 2 -1 2.5t-5.5 0.5h-6.5h-4q-6 -1 -12.5 -1.5
t-12.5 -1.5q-11 -1 -20 -3t-20 -4q-2 0 -8 -1t-12.5 -1.5t-11.5 0t-5 2.5q1 3 3 7t4 6q9 14 18 26t19 26q14 20 27.5 39t27.5 38q8 11 14.5 20.5t13.5 20.5t14 19q5 7 8.5 13t8.5 13l-311 -20l3 163l481 -7q5 -31 8.5 -62.5t7.5 -61.5l-319 -481l273 9z" />
    <glyph glyph-name="y" unicode="y" horiz-adv-x="552" 
d="M191 731q-3 -26 -4 -58.5t0.5 -65t7 -63t17.5 -53.5q5 -9 11.5 -17.5t14.5 -13t17 -4t19 8.5q4 2 7.5 0t5.5 -4q5 -5 10.5 -12.5t10.5 -12.5q6 -7 11.5 -15t10.5 -16q8 -10 14.5 -19.5t13.5 -18.5q4 -7 7 -13t7 -11l6.5 -13t4.5 -11q1 -2 2.5 -4.5t3.5 -2.5q2 1 0 5.5
t-3 6.5q-2 7 -4 12.5t-7 11.5q-4 8 -7 14.5t-8 13.5q-5 10 -11.5 19.5t-13.5 19.5q-3 7 -6 13.5t-7 12.5q-7 12 -10 19.5t-6 20.5q-1 5 -2.5 12t0.5 11q2 2 3 6t3 7q4 9 7 18t7 18q2 8 5.5 6.5t8.5 -6.5q9 -7 19 -20.5t16 -23.5q5 -8 8.5 -14t6.5 -14q1 -4 3.5 -13.5
t5.5 -9.5q2 1 1.5 6t-1.5 7q-2 13 -4.5 19.5t-7.5 18.5l-6 10t-5 10q-8 14 -15 29.5t-14 29.5q-2 8 -4.5 16.5t-0.5 15.5q6 38 10 77t5 78l167 -6q-3 -97 -7 -190q-2 -40 -3.5 -82.5t-3.5 -84.5t-3.5 -81t-2.5 -71q-5 -108 -41.5 -172.5t-87.5 -92.5q-55 -31 -116 -22
q-56 9 -101 46q-23 19 -41.5 46t-29.5 59.5t-13.5 70t6.5 79.5l165 -35q-8 -32 -1 -55t21 -36q12 -7 18 -8q5 -1 10 2q16 8 28 37.5t14 86.5l2 38l-2 -1q-29 -7 -60 -8.5t-63 5.5q-35 8 -67.5 27t-58.5 54q-38 49 -56 137.5t-4 229.5z" />
    <glyph glyph-name="x" unicode="x" horiz-adv-x="634" 
d="M14 42q2 3 4 6.5t4 7.5q12 20 24 41t24 41q7 8 14 19q2 6 5 10t5 9q11 17 23 37q8 16 17.5 31t17.5 29q6 11 12.5 21t12.5 21q3 6 6 10t8 10q4 6 8 10.5t7 9.5q7 11 15.5 19t17.5 16t18.5 16t17.5 17q4 2 5 4t9.5 8t10.5 8q3 2 6.5 5.5t8.5 7.5q-11 -8 -20.5 -14.5
t-19.5 -11.5q-5 -4 -13.5 -9.5t-18 -11.5t-18 -10.5t-14.5 -5.5q-5 -1 -7.5 -0.5t-4.5 5.5q-10 13 -18.5 25.5t-16.5 25.5q-2 4 -8 12.5t-6 9.5q-2 6 4.5 15.5t10.5 13.5q12 14 28 28t30 26q12 14 25 23t27 20q13 8 27 20q9 6 16 11t14 12q5 3 4 5q-2 0 -3.5 -1t-3.5 -2
q-5 -4 -10.5 -8t-11.5 -8q-11 -8 -20 -14.5t-20 -13.5q-12 -9 -24.5 -17.5t-25.5 -19.5q-12 -9 -25 -18.5t-26 -18.5q-3 -2 -8.5 -5.5t-11.5 -6.5t-12 -4.5t-9 1.5l-6 8.5t-12.5 19t-13 20t-7.5 12.5q-17 26 -33.5 50.5t-32.5 50.5l129 86l1 -1q10 -15 19.5 -29.5
t19.5 -28.5q14 -21 27.5 -40.5t26.5 -39.5q2 -3 4.5 -6t6.5 -4q10 -1 25 7.5t23 14.5q12 6 21 12q2 1 8.5 4t6.5 -2q0 -2 -3.5 -5.5l-7.5 -7.5t-8 -7t-5 -4q-9 -6 -20 -16.5t-16 -17.5q-4 -5 -5 -8t2 -8q8 -11 14.5 -20.5t13.5 -20.5l136 227l144 -71l-176 -308l207 -306
l-141 -93l-156 240l-130 -223z" />
    <glyph glyph-name="w" unicode="w" horiz-adv-x="769" 
d="M186 741l6 -467q2 6 3.5 11t3.5 10q7 17 12.5 34.5t11.5 34.5q5 11 8.5 21.5t7.5 21.5q4 12 7.5 23t7.5 24q1 1 3 7t4.5 12t4.5 11.5l2 5.5q3 3 9.5 -1t9.5 -6q8 -7 16.5 -15.5t15.5 -16.5q5 -5 8.5 -9.5t8.5 -9.5q18 -25 37 -46q8 -9 15 -18t15 -17q4 -4 6 -7.5t5 -8.5
q2 -4 9.5 -12.5t9.5 -10.5q2 -1 1.5 1.5t-1.5 3.5q-5 6 -9.5 12t-8.5 14q-4 6 -9.5 12.5t-11.5 13.5q-11 14 -22.5 29t-22.5 31q-5 7 -9.5 13t-9.5 14q-10 13 -21 28t-18 31q-2 4 -4.5 9.5t-2.5 9.5q2 6 2.5 9.5t2.5 8.5q2 3 4 9v1l189 4l76 -245l25 397l171 -12l-63 -694
l-223 2l-80 270l-99 -280l-244 8q-2 36 -3 72.5t-3 71.5q0 13 -0.5 24.5t-1.5 24.5v6t-0.5 10.5t-0.5 10v5.5q2 4 5 3q4 -2 12 -8.5t12 -10.5q6 -7 8.5 -11.5t7.5 -10.5q5 -7 8 -6.5t0 9.5q-6 14 -12 23l-14 21q-3 6 -7 12.5t-7 12.5q-6 11 -11 24.5t-6 26.5q-1 17 -1 33.5
t-1 32.5q-1 14 -1.5 26.5t-0.5 25.5q-2 5 0 6.5t1 7.5q0 5 1 4l3 -3q1 0 1 1.5v2t1.5 -1.5t4.5 -10q1 -4 2.5 -6.5t3.5 -6.5l4 -12t5 -12q7 -12 13 -23q3 -7 6 -13t5 -14q3 -5 7.5 -12t7.5 -13q1 -3 5 -10t8.5 -14.5t8.5 -13.5t5 -7q2 -1 2 1t-1 3q-3 7 -7.5 14.5t-8.5 13.5
q-5 8 -9.5 18.5t-9.5 19.5q-3 5 -5.5 11t-4.5 11q-5 15 -14 32q-3 8 -6 16.5t-5 16.5q-2 10 -5 18t-6 17q-2 12 -5 22q-3 18 -7 35q-1 5 -2.5 11t-3.5 11q-1 6 -1.5 10t-0.5 9q-2 39 -3.5 78t-3.5 77v4z" />
    <glyph glyph-name="v" unicode="v" horiz-adv-x="607" 
d="M209 732l102 -451q1 5 1.5 11t2.5 11q8 37 14 72.5t13 70.5q0 2 1.5 10.5t2.5 10.5q3 5 12 2t13 -5q8 -5 13 -11.5t10 -12.5q2 -4 7.5 -12t9.5 -10q5 -2 3 6q-1 5 -5.5 13.5t-7.5 13.5q-7 12 -12.5 19.5t-16.5 17.5l-8.5 8.5t-7.5 9.5q-2 4 -1.5 8.5t1.5 9.5q2 5 2.5 11
t1.5 11q5 25 8 46q5 25 9.5 48.5t8.5 46.5q1 7 2 13l2 12q4 17 7 35t6 35q0 3 2 5v1l187 -52q-2 -5 -3 -10.5t-3 -11.5q-3 -12 -7 -23.5t-7 -23.5q-2 -5 -3 -10.5t-3 -11.5q-6 -23 -13.5 -46.5t-13.5 -46.5q-5 -17 -9.5 -34t-9.5 -34q-2 -2 -4 -10.5t-3 -9.5
q-4 -6 -14.5 -0.5t-14.5 7.5q-8 5 -16.5 12t-16.5 13q-5 4 -9 7.5t-11 8.5l-11.5 11.5t-11.5 9.5q-5 1 -3.5 -1.5t2.5 -4.5q4 -5 8.5 -10t8.5 -10q5 -5 10 -9.5t10 -9.5q6 -5 12.5 -12t12.5 -13q5 -5 12 -14.5t11 -14.5q5 -6 6.5 -12t-0.5 -14q-2 -5 -3 -11.5t-3 -11.5
q-4 -10 -7 -21t-6 -22.5t-6 -22.5q-4 -12 -7 -23t-7 -23q-9 -34 -19.5 -69t-20.5 -70q-9 -33 -18.5 -65.5t-18.5 -64.5l-9 2l-180 -10q-6 23 -11.5 45t-11.5 45q-1 2 -3 10.5t-2 11.5q0 4 3 7.5t6 5.5q4 4 11.5 9.5t12.5 7.5q8 3 16 6.5t16 5.5q6 2 11.5 3.5t10.5 3.5t9 3
t9 3q7 2 12.5 3t13.5 3q2 0 9 1t9 3q2 3 -3 2.5t-7 -0.5q-8 -1 -15.5 -1t-15.5 -2q-5 -2 -10.5 -2.5t-10.5 -2.5t-10 -3t-11 -2q-8 -2 -15 -3.5t-15 -3.5q-9 -2 -17 -3.5t-16 -3.5q-3 -1 -7.5 -0.5t-6.5 3.5q-1 2 -1.5 6t-1.5 8q-5 17 -9 34t-9 36q-2 5 -3 11.5t-3 11.5
q-4 17 -8 32t-8 32q-8 29 -14.5 58.5t-14.5 58.5q-10 35 -19 70t-17 71q-2 10 -5 20t-5 20q-2 7 -3.5 12.5t-3.5 10.5l-8 36t-9 36v1z" />
    <glyph glyph-name="u" unicode="u" horiz-adv-x="591" 
d="M567 760q-5 -189 -9.5 -376.5t-9.5 -377.5l-145 2v30q-14 -6 -31.5 -12.5t-33.5 -8.5q-1 0 -4.5 -0.5t-3.5 1.5t2.5 5t4.5 4q7 5 13.5 9t14.5 9q18 13 34 21q5 4 10.5 6.5t10.5 7.5q18 10 32 24q1 1 5.5 5t9.5 8t8.5 7.5t3.5 4.5q1 2 -1.5 1.5t-3.5 -1.5q-6 -4 -12 -9.5
t-13 -10.5q-14 -12 -27 -20q-8 -5 -16 -9.5t-17 -9.5q-14 -8 -28.5 -15t-28.5 -14q-11 -5 -25 -9.5t-26 -7.5q-9 -5 -22 -7q-9 -2 -14.5 -1t-13.5 3q-27 7 -53 20q-61 32 -104 98t-53 168q-2 30 -3 60t-1 59q0 8 9 19t15 16q9 7 19.5 13.5t19.5 13.5q10 5 19.5 10t20.5 11
q29 19 55 33q11 6 22 11.5t22 12.5q11 8 20 13t20 12q2 2 6.5 5.5t5.5 5.5t-2 0.5t-7 -4t-7.5 -5l-3.5 -2.5q-11 -8 -23.5 -14.5t-23.5 -14.5q-14 -8 -29 -14.5t-29 -15.5q-13 -7 -25 -13.5t-26 -13.5q-14 -5 -27.5 -11.5t-27.5 -12.5q-2 0 -5.5 -1t-7.5 -1t-6.5 1t-2.5 5
q0 5 0.5 11.5t0.5 11.5q3 63 9.5 126.5t14.5 126.5v5.5t1 5.5l170 -24q-6 -41 -10 -81.5t-7 -82.5q-3 -7 5 -7q9 1 24 7t24 11q2 1 11.5 6.5t10.5 0.5q0 -2 -3.5 -6t-8 -7.5l-9 -7t-5.5 -4.5q-8 -5 -14.5 -10.5t-14.5 -11.5q-5 -3 -13.5 -10.5t-10.5 -12.5q-2 -3 -2 -11.5
v-13.5q-1 -11 -1.5 -22.5t-0.5 -22.5q0 -8 -5.5 -14.5t-10.5 -11.5t-10 -10.5t-10 -11.5q-6 -7 -11.5 -14t-10.5 -14q-3 -3 -11.5 -12.5t-9.5 -12.5q-2 -4 1.5 -3t5.5 3q6 4 13 11t13 12l16.5 16.5t20.5 10.5q8 2 8 -3.5v-10.5q1 -18 1.5 -36.5t2.5 -37.5v-1
q6 -63 32.5 -99.5t59 -38.5t62.5 35.5t43 121.5q10 58 12 119.5t2 121.5q-1 17 -1 34t-1 34q0 8 4 14.5t9 11.5q6 8 12.5 14.5l12.5 12.5l3.5 3.5t5 5.5t3.5 6t-2 5t-12 -3.5t-13 -8.5q-6 -3 -15 -6.5t-10 9.5q-1 12 -2 25t-1 25z" />
    <glyph glyph-name="at" unicode="@" horiz-adv-x="766" 
d="M563 518q-2 -16 -2.5 -33t-1.5 -34q-2 -33 -2.5 -62t0.5 -43v-14.5t1 -11.5q9 23 14.5 52.5t5.5 64.5v16q-2 18 -5 34.5t-10 30.5zM396 405q-12 -5 -17.5 -15t-2.5 -22q2 -8 7 -13t13 -6q-1 11 -0.5 25t0.5 31zM426 195q-48 -8 -87.5 6.5t-68.5 41.5q-34 33 -48 77
q-3 6 -0.5 10t6.5 9q11 11 27 22t30 19q6 4 12.5 6.5t14.5 4.5q8 3 14.5 6.5t16.5 5.5q3 1 14.5 3t13.5 4q1 3 -4.5 2.5t-7.5 -0.5q-11 -2 -19 -3t-20 -5q-5 -2 -9 -3t-10 -3q-15 -5 -29.5 -12t-30.5 -13q-2 -1 -6.5 -2.5t-9.5 -2t-9 0.5t-4 6q0 53 29 99q28 44 63.5 63.5
t74.5 24t80.5 0t82.5 -8.5q-4 5 -8 8.5t-9 8.5q-47 39 -126 39q-14 0 -17 -1q-44 -2 -80.5 -19t-62.5 -46q-26 -30 -41 -72t-14 -94v-12.5t1 -11.5q4 -4 16 0t17 6q20 8 38 18t38 18q6 2 12.5 3.5t12.5 3.5q10 4 17 5.5t19 3.5q2 0 7.5 1t7.5 0q2 0 1.5 -1t-2.5 -2
q-1 -1 -5 -2t-9 -1.5t-10 -1.5t-7 -2q-8 -2 -14.5 -5t-14.5 -6q-13 -4 -21.5 -8.5t-19.5 -10.5q-14 -9 -28.5 -18.5t-28.5 -20.5q-4 -3 -10.5 -10t-8.5 -12q0 -4 1.5 -9.5t2.5 -9.5q4 -14 11.5 -32t18.5 -28q6 -5 8.5 -7.5t7.5 -8.5q3 -5 5 -7t7 -6q25 -20 63 -31.5
t92 -10.5q8 0 17.5 0.5t18.5 1.5q-5 7 -10 15t-9 17zM567 120q-14 -3 -25 -3l19 -93q-82 -17 -151 -17q-85 -1 -149 19.5t-111 57.5q-16 13 -30.5 27t-26.5 31q-5 7 3.5 13.5t13.5 9.5q6 4 12.5 7t12.5 7q5 3 9.5 5.5t9.5 4.5q5 3 9.5 5t10.5 4q7 2 14.5 4t15.5 5
q3 1 14 3.5t12 5.5q3 2 -1.5 2t-5.5 -1q-11 -2 -20.5 -4.5t-20.5 -4.5q-8 -2 -15 -4t-15 -4q-6 -2 -12 -5t-13 -6q-6 -3 -22 -7t-23 -4q-11 0 -13 2t-6 10q-6 13 -11 26l-10 26q-1 5 2 11q5 6 13 11.5t14 9.5q9 5 16.5 9t16.5 8q19 8 36.5 16t34.5 16q10 4 21 11.5t21 12.5
q17 9 33 18.5t33 17.5q13 7 28 10q5 2 10 4.5t10 4.5q10 3 18.5 4t17.5 3q1 0 3 2q-1 1 -4 0q-10 -2 -18.5 -3t-19.5 -4q-9 -4 -20 -7q-14 -5 -23.5 -9t-21.5 -11q-14 -8 -28.5 -15.5t-28.5 -15.5q-9 -5 -17.5 -10t-18.5 -9q-20 -8 -39.5 -16t-40.5 -14q-8 -2 -16 -5t-16 -5
q-5 -1 -15 -2t-12 5q-1 2 -2 9.5t-2 11.5q-2 15 -3 31.5t-1 33.5q-1 83 23.5 150t69.5 117q48 55 114 85t144 34q8 1 14 1h11q68 0 127 -19.5t106 -57.5t75 -95t33 -130q1 -9 1 -14.5v-9.5q0 -45 -7.5 -85.5t-20.5 -76t-30 -63.5t-36 -47q-36 -38 -80 -45z" />
    <glyph glyph-name="slash" unicode="/" horiz-adv-x="515" 
d="M489 731l-310 -801l-161 63q6 15 12 30.5t12 31.5q12 28 22.5 55.5t21.5 55.5q6 15 12.5 31t12.5 33q2 5 5 8.5t7 7.5q12 11 25 18t27 13q13 7 25 12.5t25 10.5q6 3 11.5 6.5t13.5 5.5q7 3 13 6t14 5q3 2 12.5 5.5t10.5 6.5q1 2 -1.5 1.5t-5.5 -1.5t-5.5 -2.5t-3.5 -1.5
q-5 -2 -10.5 -3.5t-10.5 -3.5t-8.5 -3t-8.5 -3q-8 -2 -14 -5.5t-13 -6.5q-6 -2 -17.5 -6t-23.5 -8t-23 -7t-16 -3t-5 7q1 2 4 11l4 12q7 15 12 31q4 10 15.5 22t25 23t27 21t22.5 16q14 9 30.5 18t32.5 17q1 1 6 3l10 4t9 4t5 3q5 5 -3 3t-15 -5.5t-14 -6.5
q-27 -9 -50 -22.5t-46 -25.5q-2 -1 -5.5 -2.5t-7.5 -2.5t-7.5 -1.5t-4.5 1.5q-1 4 0.5 8t2.5 7q3 6 5.5 11.5t4.5 10.5q2 7 4 12.5t4 10.5q15 38 29.5 77.5t30.5 78.5q17 41 32.5 81t31.5 81v2z" />
    <glyph glyph-name="one" unicode="1" horiz-adv-x="328" 
d="M305 769v-323q0 -11 -3 -19t-7 -17q-4 -8 -10 -18.5t-11 -18.5q-7 -10 -13.5 -19t-13.5 -18q-8 -11 -15 -20t-14 -20q-3 -4 -1 -5t5 4q5 3 8 7.5t6 8.5q5 7 11 12.5t11 10.5q6 8 12.5 15t13.5 15q2 2 9.5 9t10.5 3q2 -2 1.5 -8t-0.5 -9v-360h-171v466q-2 1 -7 4t-6 4
q-3 3 -1 9t5 12.5t6.5 12t5.5 7.5q5 8 10 14t10 13l18 21q1 1 4.5 5.5l7 9t6 9t2.5 5.5q0 2 -1.5 1.5t-2.5 -1.5q-5 -4 -9.5 -9.5t-7.5 -10.5l-10 -10t-10 -11t-11 -11t-11 -11q-8 -9 -17 -17l-6 -6t-8.5 -7.5t-9 -5.5t-8.5 0q-5 3 -9.5 5.5t-9.5 5.5q-14 6 -27.5 13.5
t-27.5 15.5l125 236v1h171z" />
    <glyph glyph-name="two" unicode="2" horiz-adv-x="506" 
d="M63 757q15 2 31 4l32 4q7 1 13.5 -2.5t12.5 -7.5q5 -5 12 -12.5t13 -13.5q7 -5 14 -11t15 -13q11 -8 22.5 -18t23.5 -17q2 -1 6.5 -3.5t5.5 -2.5t1 3q0 1 -1 2q-3 3 -8 5.5t-9 6.5q-7 5 -11.5 9t-10.5 10q-7 6 -14 12.5t-12 13.5q-6 6 -12 14.5t-10 15.5q-1 2 -2 6.5
t2 4.5q2 1 11.5 1.5t20.5 0t21 -1t13 -0.5q25 -1 50.5 -5t48.5 -12q41 -13 69 -40h1q47 -40 59.5 -90.5t4 -103t-32.5 -104t-51 -94.5q-1 -2 -4 -6.5t-6 -10t-6 -10t-4 -4.5q-5 -4 -11.5 2t-9.5 8q-11 14 -20 30q-1 2 -5 9t-7 5q-2 -2 0 -9t3 -10q5 -13 11 -24.5t12 -24.5
q2 -5 3.5 -10.5t-0.5 -10.5l-3 -6t-4 -6q-14 -18 -28 -35.5t-28 -34.5h189v-172h-454v172q6 0 19.5 9t28 20.5t27.5 22.5t18 16q4 3 9 1t11.5 -7.5t10.5 -9.5q11 -11 23 -22.5t23 -23.5q11 -11 20 -22t19 -22q1 -2 4 -6t7 -8.5t7 -8.5t5 -4q1 -1 2 -0.5t-1 2.5q-1 3 -7 10.5
t-8 10.5q-6 8 -12.5 16.5t-13.5 16.5q-10 12 -19.5 23t-17.5 23q-9 9 -19 24q-2 5 -9 16t-5 18q1 2 6.5 7t6.5 7q12 12 31 32t39 44.5t39 52t31.5 54.5t15.5 51.5t-7 43.5q-12 22 -39 30.5t-59 10t-63 -1.5t-52 -6z" />
    <glyph glyph-name="three" unicode="3" horiz-adv-x="413" 
d="M43 778q112 1 185 -33t108 -84q36 -50 34 -111q0 -50 -25 -97q-2 -5 -4.5 -4.5t-5.5 3.5q-8 4 -20.5 18.5t-20.5 21.5q-5 8 -10.5 14.5t-12.5 12.5q-1 3 -6.5 10.5t-8.5 8.5q-2 0 -2 -4q3 -5 9 -13t9 -13q5 -5 8 -11.5t7 -11.5q3 -4 9.5 -13.5t12.5 -21t10 -21.5t2 -14
q-2 -3 -7.5 -9t-8.5 -8l-1 -1q49 -31 69.5 -76.5t16.5 -94t-31.5 -93.5t-73.5 -73q-59 -35 -129.5 -47t-137.5 -11l2 162q19 0 42.5 1t46.5 5t44.5 10t38.5 16q12 8 19.5 18t7.5 24v9q-2 17 -23.5 25.5t-50 12.5t-58 4t-45.5 -1l-9 162q13 2 24.5 3t24.5 4q8 1 17.5 -5.5
t15.5 -10.5q11 -8 22 -19.5t22 -21.5q5 -6 11 -12.5t12 -11.5q4 -4 7.5 -8t8.5 -8l8.5 -8.5t8.5 -7.5q3 0 1.5 2t-1.5 3q-2 4 -7 9t-10 9q-5 5 -9 10l-8 10q-8 10 -16.5 19t-16.5 20q-2 2 -6.5 7.5t-8.5 11.5t-7 12t-3 9t3 4.5t5 1.5q10 5 22 12t22 16.5t17 21t7 24.5
q1 15 -6.5 25.5t-19 18t-25 12t-25.5 7.5q-19 5 -39 6t-39 1z" />
    <glyph glyph-name="four" unicode="4" horiz-adv-x="536" 
d="M257 748q-4 -38 -7.5 -75t-8.5 -75q0 -5 -0.5 -10.5t-1.5 -10.5q-3 -41 -9 -85v-10t-1 -10q-1 -6 -1.5 -9.5t0 -6.5t1.5 -6.5t3 -9.5l3 -9t3 -8q2 -4 3.5 -8t1.5 -7t-2.5 -4.5t-8.5 -0.5q-8 2 -9.5 -1t-2.5 -11q-2 -12 -3 -21v-10.5t-2 -10.5q0 -5 -0.5 -10.5t-1.5 -11.5
h90q11 0 20 -7.5t17 -15.5q4 -5 8 -10.5t9 -10.5q5 -6 9.5 -12t9.5 -12q0 -1 2.5 -4t5.5 -6t5.5 -4.5t3.5 0.5q2 3 -3.5 11t-7.5 10q-6 12 -13.5 22.5t-14.5 21.5q-3 5 -5 9.5t-4 9.5q-3 7 -7 14.5t-4 15.5v103v308h172v-770h-172v157h-139h-174q1 10 1.5 20.5t2.5 21.5
q2 22 4.5 43t4.5 43q4 27 6.5 53.5t6.5 53.5q5 46 9.5 91.5t9.5 92.5q1 7 10 5q5 -2 12 -7t12 -9q8 -6 15.5 -12.5t15.5 -14.5q10 -8 19 -18.5t17 -19.5q4 -6 8 -10.5t8 -9.5q5 -6 10.5 -13.5t10.5 -13.5q4 -5 6 -8t7 -8q5 -9 13 -20q1 -2 4 -6t4 -5q2 -1 1.5 1t-2 5
t-3.5 5.5l-2 2.5q-3 5 -5.5 8t-5.5 8q-8 14 -19 26q-5 8 -10 14l-10 12q-3 5 -7 10l-8 10q-6 8 -11.5 15.5t-11.5 14.5q-7 8 -13.5 14.5l-12.5 12.5t-11.5 12.5t-11.5 12.5t-11.5 14t-9.5 16q-2 5 -1.5 10t1.5 10q0 5 0.5 10.5t1.5 10.5q2 25 5 49t5 48z" />
    <glyph glyph-name="five" unicode="5" horiz-adv-x="465" 
d="M205 477q6 -1 8 -2.5t1 -8.5q-2 -7 -6.5 -15t-7.5 -15q-3 -5 -5.5 -10t-4.5 -10t-8.5 -15.5t-6.5 -14.5q0 -3 1.5 -2.5t3.5 2.5q4 3 11 14.5t11 17.5q7 8 12 14t11 14q5 5 13 12.5t13 7.5q2 0 8 -2t13 -4t13 -4l9 -3q71 -27 111 -78t36 -131q-4 -65 -36.5 -108.5
t-79 -70.5t-100 -40.5t-99 -18.5t-76 -5h-30.5l7 168q67 -1 120 7q22 3 44 9t39.5 15.5t28.5 22.5t12 31q0 10 -4 19q-2 6 0 15t6.5 17.5t10 16t9.5 12.5q2 3 6.5 9.5t4.5 10.5q0 5 -4 2t-5 -5q-6 -5 -11.5 -11t-10.5 -12q-5 -5 -11 -10.5t-12 -10.5q-2 -3 -6 -6t-9 -1
q-8 2 -12 4q-18 7 -40.5 10.5t-46.5 5t-47.5 1t-42.5 -1.5l-12 449h108q11 0 3 -11q-3 -7 -8 -13t-10 -13q-6 -8 -12 -19.5t-10 -19.5q-2 -5 0 -6t6 3q3 5 5.5 9t4.5 8q7 10 13.5 16.5t12.5 12t13 10.5t17 12q6 3 12.5 7t12.5 4h68h111v-57q0 -12 -7 -26t-14 -25
q-5 -8 -11 -15t-12 -15q-3 -4 -6 -7.5t-7 -7.5q-6 -8 -13 -15.5t-13 -15.5q-2 -2 -9 -10t-8 -10q0 -3 2 -2.5t4 2.5q6 4 11.5 10.5t10.5 12.5q6 6 12.5 12t11.5 12q10 12 25 23q2 2 10 8t12 3q2 -2 1.5 -8.5t-0.5 -8.5v-29q-9 0 -17.5 0.5t-17.5 -0.5q-7 0 -12.5 -3
t-11.5 -6q-8 -5 -13 -10.5t-12 -11.5q-2 -2 -8 -6t-8 0q-2 3 1.5 9l7 12t4.5 11t-6 5q-10 1 -20.5 0.5t-20.5 -0.5h-42v-122z" />
    <glyph glyph-name="six" unicode="6" horiz-adv-x="508" 
d="M367 618l-9.5 -5.5t-24 -16.5t-33 -29t-36.5 -43q16 1 30 0q43 -3 76 -19.5t57 -43t39 -62t20 -75.5q7 -50 1.5 -101.5t-25 -96.5t-55 -79.5t-89.5 -49.5q-26 -7 -54.5 -8t-55.5 6q-56 12 -93.5 44t-59.5 76t-30.5 96t-5.5 104q6 80 28 153q2 5 6 4.5t7 -2.5
q8 -4 18.5 -11t16.5 -12q11 -9 21 -18t21 -18t21.5 -19t21.5 -19q13 -10 24 -19t22 -20q5 -5 10 -9t12 -6q2 -2 6 -4q2 -2 4 -3q4 1 -5 6t-10 6q-8 5 -15 12.5t-14 12.5q-9 10 -19.5 19t-20.5 17l-18 16t-17 18q-8 7 -14.5 14t-13.5 15q-6 7 -12.5 13t-12.5 11q-3 3 -7 8
t-8 10.5t-6.5 11t-1.5 9.5q2 2 3.5 7t2.5 8q10 21 20.5 40.5t23.5 38.5q5 6 13 2q8 -2 17 -9.5t14 -12.5l16 -16t16 -17q7 -7 12 -13.5t10 -14.5q1 0 3.5 -2.5t4.5 -0.5q1 2 -3.5 7.5t-5.5 7.5q-8 12 -20 27q-8 8 -14 17t-14 18q-2 3 -6 8t-8 10.5t-6.5 11t-2.5 8.5
q0 4 1.5 6t3.5 5q26 32 57 60t66 49q7 4 13.5 8t14.5 8zM276 354q-10 3 -20.5 4t-20.5 -2q-7 -2 -3 -9t6 -10q5 -6 8.5 -8.5t9.5 -6.5q1 -2 4 -5t1 -6q-2 -2 -8.5 0.5t-9.5 3.5q-8 5 -20.5 13t-19.5 8q-4 0 -5.5 -1.5t-4.5 -3.5q-13 -17 -17 -36.5t-2 -40.5q3 -28 17 -53.5
t40 -36.5q26 -10 48 2t33 36q5 11 6 19q3 7 9 6q7 -2 17.5 -11.5t16.5 -14.5q8 -8 15.5 -13.5t17.5 -12.5q5 -3 5.5 -0.5t-2.5 6.5q-4 4 -9 7.5t-10 8.5q-8 8 -14.5 17t-14.5 17q-5 7 -11.5 18t-9.5 19q-5 8 -5 12.5t-1 13.5q-5 20 -15.5 36t-30.5 24z" />
    <glyph glyph-name="seven" unicode="7" horiz-adv-x="506" 
d="M491 770q-3 -9 -8 -20q-37 -112 -74.5 -221t-75.5 -221q-2 -5 -2.5 -6.5t-5.5 0.5q-8 3 -21 14.5t-20 17.5l-12 10t-12 9q-1 1 -4.5 3.5t-3.5 -1.5q-1 -2 6 -9.5t9 -9.5q8 -10 16 -18t16 -19q5 -7 12.5 -19.5t5.5 -20.5l-2.5 -7.5t-2.5 -8.5l-14 -40l-14 -40
q-2 -5 -3.5 -9.5t-3.5 -9.5q-12 -37 -24 -73t-25 -72l-161 56l183 541h-132q-7 0 -9 -1t-7 -3q-9 -2 -15.5 1t-14.5 3h-50v70q0 12 10 7q5 -3 12 -11t13.5 -16.5l13 -17t11.5 -13.5q2 -3 6.5 -8.5t6.5 -7.5q3 -1 4 0.5t-1 3.5q-2 5 -7 11t-9 10q-6 10 -12.5 19.5t-11.5 20.5
q-5 7 -8.5 13t-7.5 12q-6 9 -10.5 19t-8.5 20q-2 7 -1.5 15t0.5 16v11h469z" />
    <glyph glyph-name="eight" unicode="8" horiz-adv-x="541" 
d="M326 509q20 17 20 42q0 11 -5.5 22t-14.5 19q-23 21 -57 21q-32 0 -55 -21q-19 -16 -19 -41q0 -26 19 -42q3 -3 6.5 -5.5t6.5 -4.5q4 -2 3 -5.5t-2 -7.5q-2 -4 -8 -10t-10 -11q-8 -11 -16.5 -22t-18.5 -21q-2 -2 -10 -11t-8 -11q-1 -2 4 0q4 2 9 7.5t9 8.5
q11 10 19.5 19.5t19.5 19.5q8 6 18 13t19 12q8 4 14.5 5.5t14.5 3.5q23 3 42 20zM455 403q28 -32 43.5 -72.5t15.5 -86.5q0 -50 -19 -93.5t-51 -75.5q-34 -35 -79 -54.5t-96 -19.5t-95.5 19.5t-77.5 54.5q-12 12 -23 26.5t-19 29.5q-4 7 3 17q5 10 13 19.5t16 17.5
q9 7 18 18q11 10 21 21q2 3 8.5 9.5t6.5 8.5q2 4 0 3l-4 -2q-5 -3 -11.5 -9.5t-10.5 -11.5q-8 -7 -16.5 -13.5t-16.5 -12.5q-6 -5 -12 -9t-12 -9q-4 -2 -11.5 -6t-9.5 3q-2 5 -3.5 12.5t-2.5 13.5q-3 11 -3.5 21.5t-0.5 21.5q0 46 15 86.5t44 72.5q-59 62 -59 148
q0 48 19 89t54 72q34 30 77 47.5t93 17.5t94 -17.5t78 -47.5q34 -31 53.5 -72t19.5 -89q0 -43 -15.5 -80.5t-43.5 -67.5zM269 324q-32 0 -52 -22q-22 -22 -22 -58q0 -33 22 -57q10 -10 23.5 -16t28.5 -6q16 0 29 6t24 16q11 11 17.5 25.5t6.5 31.5q-1 14 -4 26.5t-11 23.5
q-4 4 0 13q3 6 8.5 15.5t8.5 14.5q4 5 7.5 9.5t6.5 9.5q5 8 11 14l13 13q1 2 3.5 5.5t0.5 4.5q-2 2 -6.5 -2t-6.5 -5l-26 -26q-3 -5 -7 -8.5t-9 -7.5q-5 -8 -14 -15t-17 -9q-5 -1 -8 0.5t-8 1.5q-5 1 -9.5 1.5t-9.5 0.5z" />
    <glyph glyph-name="nine" unicode="9" horiz-adv-x="511" 
d="M140 144l9.5 5t24.5 16t33.5 28.5t36.5 42.5h-30q-27 2 -53 10t-49 25q-5 3 -3.5 6.5t3.5 6.5q3 7 9 14.5t11 15.5q4 5 6.5 9t7.5 9q4 7 9 13t11 13q2 1 6.5 5.5l9 9t8 8.5t3.5 6q0 4 -6 -1.5t-7 -6.5q-5 -5 -11 -9.5t-12 -10.5q-5 -5 -9 -10t-9 -10t-8.5 -9t-6.5 -8
q-6 -6 -17 -13.5t-20 -9.5q-5 -2 -7 0.5t-5 6.5q-23 28 -35.5 61.5t-17.5 68.5q-7 50 -1.5 102t25 97t55 79t89.5 49q26 8 54 8.5t56 -4.5q68 -14 110.5 -59t62.5 -110q2 -9 -1.5 -18.5t-7.5 -17.5q-2 -4 -4.5 -8t-4.5 -7q-6 -11 -13 -23q-4 -6 -8 -11.5t-8 -12.5
q-7 -11 -15 -20.5t-16 -20.5q-4 -5 -7 -9t-8 -10q-2 -2 -5.5 -7t-7.5 -10.5t-7.5 -10.5t-3.5 -6q-1 -2 0 -2.5t3 1.5q3 2 7 7.5t7 10.5q7 8 12.5 16t12.5 16q5 5 10.5 11t10.5 12q6 8 12.5 16.5t14.5 16.5q4 5 8 10.5t9 10.5l4 4t6.5 5.5t6.5 4t5 -1.5q1 -2 1.5 -9.5
t1 -16.5t1 -16.5t0.5 -10.5q1 -23 0 -45q-5 -85 -28 -152t-53.5 -118t-64.5 -86t-63 -57.5t-48 -33l-19 -10.5zM184 497q0 -35 12 -56t30 -30.5t39 -7.5t37.5 15t26 35.5t5.5 54.5q-1 8 -3 14t-4 15q-3 8 3.5 21t11.5 21q5 10 10.5 16.5t13.5 15.5q2 2 6 7.5t0 7.5
q-3 2 -9 -3.5t-8 -7.5l-13.5 -13.5t-12.5 -11.5q-2 -2 -4.5 -5t-6 -6t-7 -4t-6.5 1q-2 1 -3.5 3t-3.5 4q-26 23 -55 17t-45 -36q-8 -16 -11 -33t-3 -34z" />
    <glyph glyph-name="exclam" unicode="!" horiz-adv-x="255" 
d="M222 773v-262q0 -6 -3 -11.5t-6 -10.5q-7 -13 -14.5 -24.5t-16.5 -23.5q-21 -25 -43 -46q-7 -7 -14 -12.5t-13 -13.5q-4 -4 -6.5 -7t-7.5 -7q-4 -4 -7 -6.5t-7 -7.5q-6 -7 -12 -12t-13 -11q-9 -8 -17 -13.5t-16 -13.5q-1 -2 -5.5 -6t-4.5 -5q0 -4 6 2l6 6q9 10 19 17
t21 16q7 5 13 11.5t13 12.5q5 5 9 8.5t9 8.5l10.5 10.5t11.5 9.5q14 11 26 22.5t26 24.5q2 1 6.5 5.5t9.5 9t10 8t8 3.5q2 -1 2 -5.5v-6.5v-273h-144q-11 0 -7 10q2 7 10 17.5t13 16.5q9 11 18.5 18.5t21.5 14.5q2 2 6 4.5t4 4.5q-1 3 -6 1t-7 -4q-15 -6 -25.5 -14
t-22.5 -20q-1 -2 -5.5 -6t-10 -8t-10 -6.5t-6.5 -0.5t-2 6.5v7.5v68q0 11 -11 4q-3 -1 -12 -6t-11 0t6 14.5t10 13.5q6 5 12 13t6 16v43v395h173zM49 4v109h173v-109h-173z" />
    <glyph glyph-name="question" unicode="?" horiz-adv-x="529" 
d="M23 538q2 23 9 48.5t16 45.5q8 18 19.5 37t24.5 34q3 3 6.5 3t8.5 -2q8 -2 22 -10.5t22 -13.5l10 -6t10 -7q3 -2 8 -5.5t11 -8t11 -8t7 -3.5q3 -1 2.5 1t-2.5 4q-2 4 -6.5 7t-8.5 6q-6 5 -11 9t-10 9q-20 15 -35 30q-4 3 -10.5 11.5t-2.5 12.5q3 3 13 9t14 8
q29 16 60.5 21.5t64.5 4.5q66 -3 119.5 -32t82.5 -87q13 -29 17 -59.5t0.5 -61.5t-15 -60.5t-27.5 -54.5q-21 -32 -42 -60t-39 -57t-31.5 -60.5t-17.5 -69.5l-174 1q6 46 19 84.5t33 78.5q2 5 5 5.5t7 0.5q7 1 16 -1.5t18.5 -6t18 -8t14.5 -7.5q9 -5 16.5 -9.5t15.5 -9.5
q2 0 5.5 -1.5t3.5 2.5q-1 2 -9.5 7t-11.5 7q-9 7 -17.5 13t-17.5 11q-8 5 -15.5 9.5t-13.5 9.5q-4 2 -10 6.5t-4 9.5q1 1 4 6t7 11t7.5 11.5t4.5 7.5q15 24 30.5 46.5t31.5 46.5v1q11 17 18 37.5t-1 40.5q-2 4 -1 5.5t3 3.5q8 7 21 14t22 12q7 5 13.5 8t13.5 8q1 1 5 3.5
t1 4.5q-4 2 -15 -3.5t-15 -6.5q-6 -3 -11.5 -5.5t-12.5 -4.5q-16 -5 -32 -8q-4 -1 -9.5 -1t-9.5 -1q-14 0 -23.5 1t-23.5 -4q-28 -10 -41 -33.5t-15 -51.5zM146 4v109h172v-109h-172z" />
    <glyph glyph-name="less" unicode="&#x3c;" horiz-adv-x="340" 
d="M309 428l-147 -75l153 -84l-62 -113l-18 10l-18 10q-10 6 -19.5 11t-19.5 10q-4 2 -7.5 4.5t-8.5 4.5q-10 5 -19 10l-18 10q-2 2 -7 4.5t-6 4.5q-2 3 0.5 5t4.5 4q9 7 20 12.5l21 10.5q8 5 16.5 6t16.5 4q5 2 6 4.5t-6 1.5q-5 0 -9.5 -1t-9.5 -2q-8 -2 -13 -3.5t-13 -3.5
q-4 -2 -7 -3l-6 -2q-17 -7 -30 -8q-9 -2 -21 -2.5t-21 3.5q-9 6 -19 11.5t-20 10.5h-1l9 146q22 11 43 22t43 22q4 3 9 2.5t10 -2.5q8 -2 16 -5t15 -6t14 -5.5t14 -4.5q4 -2 17.5 -7t17.5 -3q2 2 0 4t-4 3q-4 2 -9.5 4t-10.5 4q-11 5 -25 13.5t-21 17.5q-4 6 -0.5 8t8.5 5
l41 20.5t41 21.5z" />
    <glyph glyph-name="numbersign" unicode="#" horiz-adv-x="590" 
d="M307 529l-7 -38h72l11 62l126 -24l-6 -38h60v-128h-83l-13 -66h46v-129h-24q-8 0 -18.5 4t-21 9.5t-20.5 11.5t-17 10q-14 8 -28 17t-28 15q-7 2 -7.5 -0.5t4.5 -5.5t9 -5.5t9 -5.5q7 -4 17.5 -11.5t21.5 -16.5t19.5 -18.5t10.5 -16.5q1 -3 0 -7t-2 -7q-2 -13 -4.5 -25
t-4.5 -25v-2l-126 24l10 55h-72l-15 -79l-126 24l10 55h-81v129h105l11 66h-66v128q11 0 22.5 0.5t22.5 -0.5q13 0 25.5 -5.5t23.5 -13.5q9 -3 18.5 -9t17.5 -11q5 -5 11 -9.5t14 -9.5q1 -1 5 -3.5t8.5 -5t8 -4.5t4.5 -2q2 0 0 5q-4 3 -10.5 7.5t-11.5 8.5q-8 6 -15.5 13
t-15.5 14q-8 6 -20.5 18t-14.5 21q0 3 1 8t2 8q1 5 1.5 8.5t0.5 8.5q1 4 2 7.5t2 7.5zM276 363l-11 -66h72q1 6 10 4q8 -2 16.5 -7.5t15.5 -9.5q4 -2 12.5 -7t11.5 -4q3 2 1 4l-4 4q-5 5 -11 9.5t-11 9.5l-21 21q-4 5 -8.5 11t-3.5 13t3 18h-72z" />
    <glyph glyph-name="dollar" unicode="$" horiz-adv-x="510" 
d="M176 247l1.5 -9.5t8.5 -21t21.5 -20.5t39.5 -8q10 0 23.5 2t25 7.5t19 14.5t7.5 23q0 18 -12.5 34t-30 29.5t-37 24l-32.5 17.5q-3 2 -12.5 7t-19 10.5t-18 10t-9.5 6.5q-4 4 0 9q3 7 12 13t16 10q12 8 24 13q9 5 17.5 8t16.5 7q1 0 4.5 1.5l7 3t5.5 3t1 2.5
q-2 2 -10.5 -1t-10.5 -3l-18 -6t-18 -7q-5 -2 -9.5 -4t-9.5 -3q-8 -3 -16.5 -7t-15.5 -7q-6 -2 -13.5 -5.5t-12.5 -3.5t-7 2t-7 5q-44 36 -60 79t-10 99q7 64 48 108t98 61v55h124v-58q66 -21 102.5 -78.5t37.5 -133.5l-153 -1q0 22 -5.5 35t-11.5 20t-11 9.5t-6 4.5
q0 2 2 4t10.5 3t11.5 1q11 0 23.5 -2.5t23.5 -6.5q2 -1 9 -2t6 3q0 2 -4.5 3t-6.5 1q-12 4 -24 7q-18 4 -30.5 5t-32.5 -2q-10 -2 -21 -6.5t-18 -11.5q-5 -8 -9 -11q-10 -11 -11 -23q-2 -14 5.5 -26.5t21 -23.5t31 -21.5t36.5 -20.5q2 -1 7.5 -3.5t11.5 -6t11 -7t6 -4.5
q2 -3 0.5 -5t-3.5 -4q-7 -3 -17 -5t-17 -4q-17 -5 -30.5 -9.5t-27.5 -13.5l-9 -4.5t-8 -4.5q-2 -2 0 -2.5t4 0.5q5 1 12 4.5t14 5.5q11 5 26 9.5t29 6.5q6 0 12.5 0.5t12.5 0.5q11 2 22.5 0.5t22.5 -3.5q6 -3 12.5 -8t12.5 -9q41 -34 64 -75.5t25 -95.5q1 -39 -12 -72
t-36.5 -57.5t-54.5 -41.5t-66 -25v-40h-124v40q-56 13 -87.5 44.5t-47.5 64.5q-18 39 -24 83z" />
    <glyph glyph-name="percent" unicode="%" horiz-adv-x="569" 
d="M493 723l-281 -722l-144 55q6 14 11.5 28.5t10.5 28.5q11 25 19.5 49.5t18.5 49.5q6 15 11.5 29.5t11.5 28.5q2 5 5.5 8t6.5 7q10 10 21.5 16.5t23.5 12.5q11 5 23 10.5t24 10.5q5 2 10.5 5t10.5 5q7 3 13 6t12 5q2 0 11 3.5t10 5.5q1 3 -7 1t-8 -3q-5 -2 -9 -3.5
t-9 -3.5t-8 -3.5t-8 -3.5q-7 -2 -12.5 -4t-12.5 -5l-15 -6t-20.5 -8t-20.5 -6.5t-15 -2.5q-2 0 -4 2.5t-1 5.5q1 2 4 9t4 11q2 7 5 13.5t6 13.5q3 9 13 20t22 21t24 18.5t21 14.5q14 9 28 16.5t28 14.5q3 2 14.5 7t13.5 7t0.5 3t-3.5 -1q-7 -2 -13.5 -5t-13.5 -6
q-23 -8 -43 -20t-43 -22q-2 -2 -11 -5.5t-10 1.5q-2 3 -0.5 6t2.5 7l4 10l4 10t4 9.5t4 9.5q14 36 27.5 71t27.5 70q28 75 57 147l1 3zM143 769q24 0 44.5 -10t37.5 -27q15 -17 23.5 -38.5t8.5 -45.5q0 -30 -14 -58q-3 -7 -5.5 -4.5t-2.5 -2.5q0 -3 -2 -4t-4 -3
q-5 -6 -7 -12.5t-7 -10.5q-7 -5 -19.5 -0.5t-18.5 7.5q-5 3 -17 9.5t-17 6.5q-4 1 -4.5 -1t1.5 -4q2 -5 9.5 -10.5t11.5 -9.5l4 -4t5 -6t2 -6.5t-4 -4.5q-5 -2 -12.5 -2h-12.5q-50 0 -83 36q-32 35 -32 84q0 20 6 40q2 4 5 4h7q9 -2 26 -10t26 -14q5 -3 9.5 -5.5t9.5 -5.5
q7 -5 18 -11q1 -2 6.5 -5.5t6.5 0.5q0 1 -3.5 4.5t-7.5 7t-8.5 6t-5.5 3.5q-6 4 -11 7.5t-11 7.5q-11 8 -25.5 19t-19.5 22q-3 5 -1 8l4 6h1q16 17 37 27t46 10zM161 674q-8 9 -18 9q-4 0 -9.5 -2t-5.5 -5q-1 -4 3.5 -9t9 -10.5t8 -10t0.5 -7.5q-2 -3 -6.5 -2t-9.5 3t-9.5 3
t-7.5 -1q-3 -3 1 -9.5t6 -8.5v-2q7 -9 20 -9q10 0 18 9q10 10 10 26t-10 26zM429 247q25 0 46 -9.5t36 -26.5t24 -38.5t9 -45.5q0 -32 -14 -58q-4 -6 -6.5 -4t-2.5 -4q0 -3 -2 -4t-4 -3q-4 -5 -6.5 -11.5t-7.5 -10.5q-7 -5 -19 -0.5t-19 7.5q-4 2 -16.5 9t-16.5 8
q-8 0 -4 -7q3 -4 10 -9.5t11 -10.5l4 -4t5.5 -6t2 -6t-4.5 -4q-5 -2 -12.5 -2.5t-12.5 -1.5q-24 0 -45 10t-37 27q-15 17 -23.5 38.5t-8.5 46.5q0 19 6 39q2 5 4.5 5t6.5 -1q10 -2 27 -10t25 -14q5 -2 9.5 -5t9.5 -5q10 -6 18 -11q0 -1 2.5 -2.5l5 -3t4.5 -1.5t2 2
q0 1 -3.5 4t-8 6.5t-9 6.5t-5.5 4l-21 15q-11 8 -25.5 18.5t-21.5 22.5q-2 5 0 7t5 6l1 1q16 17 37 26.5t45 9.5zM448 153q-8 8 -19 8q-3 0 -9 -1.5t-7 -5.5q0 -3 4.5 -8t9.5 -10.5t8 -10t0 -7.5q-2 -3 -6.5 -2t-9.5 3t-9.5 3t-7.5 -1q-2 -3 1.5 -10t5.5 -10h1q7 -9 19 -9
q11 0 19 9q10 10 10 26q0 14 -10 26z" />
    <glyph glyph-name="greater" unicode="&#x3e;" horiz-adv-x="345" 
d="M47 464q3 5 6 6q8 2 19 -3.5t18 -9.5q10 -7 20 -11q7 -5 13.5 -9t14.5 -8q2 -1 7 -4.5t11 -7t10.5 -6t6.5 -2.5q4 2 -2 6t-7 5l-14 10t-15 10q-9 7 -17 12.5t-16 11.5q-5 5 -14 12.5t-14 12.5q-2 4 -4.5 8t-0.5 8q5 10 10 19t9 19l219 -114l8 -146q-4 -2 -8.5 -4.5
t-8.5 -4.5q-5 -3 -8.5 -1.5t-8.5 3.5q-11 5 -21 9.5t-21 9.5q-3 2 -10 4t-9 -1t1.5 -6t5.5 -4q5 -3 8.5 -5.5t7.5 -5.5t12 -11t4 -13q0 -1 -4 -3t-8.5 -4.5t-8.5 -5t-5 -3.5q-11 -5 -19 -10q-9 -5 -18 -9.5t-18 -9.5q-10 -5 -19 -10.5t-18 -9.5q-9 -6 -19 -11t-19 -10.5
t-19 -10.5l-62 113l153 84l-146 75z" />
    <glyph glyph-name="hyphen" unicode="-" horiz-adv-x="323" 
d="M24 387h42q13 0 26 -6t24 -13q4 -3 8.5 -6.5t9.5 -7.5q8 -5 16 -11t16 -11q5 -3 15.5 -10.5t14.5 -9.5t4 0.5t-3 4.5q-5 5 -10 9t-10 7q-6 5 -11 9t-10 9t-13 12.5t-11 13.5q-4 8 0 9t12 1h156v-86q-21 0 -42.5 0.5t-43.5 -0.5q-7 0 -12 -0.5t-12 0.5h-16h-150v86z" />
    <glyph glyph-name="equal" unicode="=" horiz-adv-x="343" 
d="M35 307h162q8 0 14 -2.5t14 -4.5q6 -2 13 -7t12 -8q4 -2 11.5 -7.5t12.5 -4.5q4 0 3 3.5t-2 6.5q-2 4 -7.5 10t-5.5 10t4.5 4h7.5h37v-86h-96q-8 0 -18 4.5t-18 7.5q-10 6 -19.5 11t-20.5 11q-9 5 -18.5 7t-19.5 4q-2 0 -8 1t-6 -2q0 -2 4.5 -4t10 -3.5t10 -2.5t6.5 -2
q9 -2 15 -6.5t11 -10.5q7 -7 8 -10t-1.5 -4t-7.5 -1h-11h-97v86zM35 468q11 0 21.5 0.5t21.5 -0.5q13 0 25.5 -6t22.5 -13q6 -3 10.5 -6.5t9.5 -6.5q9 -6 16.5 -12t15.5 -11q4 -2 14.5 -9.5t15.5 -9.5q4 -2 4 0.5t-3 4.5q-4 4 -9.5 8.5t-10.5 8.5t-10.5 7.5t-10.5 8.5
t-12.5 13t-11.5 14q-4 9 0 9h12h155v-85h-85q-7 0 -12.5 -1t-12.5 0q-4 0 -7.5 0.5t-7.5 0.5h-151v85z" />
    <glyph glyph-name="plus" unicode="+" horiz-adv-x="380" 
d="M24 373h69q15 0 31.5 -8t28.5 -15q5 -2 9 -5t9 -5q11 -7 20.5 -14t20.5 -13q2 -2 9.5 -6.5t10.5 -4.5t1.5 2t-2.5 3q-5 5 -12.5 10t-13.5 10q-7 5 -13.5 10.5t-13.5 11.5q-4 3 -9 8l-10.5 10.5t-9.5 11t-5 9.5q-1 3 -0.5 11t0.5 12v72h86v-110h120v-85h-108h-12
q-1 -5 -0.5 -11t0.5 -11v-96h-86v118h-120v85z" />
    <glyph glyph-name="ampersand" unicode="&#x26;" horiz-adv-x="620" 
d="M521 -7q-13 6 -29 16q-14 8 -32.5 19.5t-41.5 25.5q-9 -7 -19 -14.5t-21 -13.5q-38 -25 -79 -32.5t-81 -2.5q-25 3 -47.5 11.5t-43.5 20.5q-43 24 -70 67q-36 56 -27 127q5 40 23 72.5t43 58.5q-19 35 -31 71.5t-12 74.5q-3 59 13.5 105.5t42.5 80.5q24 32 54 52t64 31
q33 11 68 12.5t67 -5.5q41 -8 75.5 -30t59.5 -56q2 -3 5 -6.5t2 -6.5q-2 -5 -10.5 -12.5t-13.5 -11.5q-17 -12 -37 -25q-4 -3 -8 -5.5t-7 -4.5q-11 -7 -21 -13t-21 -12q-12 -6 -24.5 -11.5t-23.5 -13.5q-8 -3 -14.5 -6t-14.5 -8q-4 -2 -4 -4q1 -2 4 1q9 3 17 7t16 9
q11 6 24.5 11t25.5 12q6 3 12.5 6t12.5 8q8 3 13.5 6t12.5 8q5 3 10.5 5.5t10.5 5.5q9 4 19 8.5t19 7.5q3 1 10 3t9 -2q1 -1 3 -5.5t3.5 -9.5l3 -10t1.5 -7q10 -37 4 -72t-24 -68q-18 -35 -44.5 -61t-51.5 -46q-13 -9 -25 -16t-23 -12t-16 -7.5t-10 -4.5q-4 -2 -8.5 -4
t-9.5 -4q16 -15 33.5 -30t36.5 -28q19 33 14 55l152 30q8 -42 -2 -85t-36 -85q32 -18 51 -28t20 -11zM281 149q-2 2 -8 7.5t-12.5 11.5t-12 11t-6.5 6q-1 3 2 7t8 8t10 7t8 4q8 4 16.5 8t17.5 6q5 3 9 4t9 3q2 0 9 1.5t5 4.5q-2 2 -8.5 1t-8.5 -2q-12 -2 -26 -5
q-5 -1 -10.5 -3t-10.5 -4q-6 -2 -10 -3t-8 -3q-7 -2 -21.5 -6t-19.5 -2q-2 2 -8.5 7.5t-8.5 7.5q-11 -12 -14 -29q-1 -11 3.5 -19t12.5 -16l3.5 -3.5t5.5 -2.5q12 -9 33 -11q11 -1 21 -0.5t20 4.5zM223 435q31 17 55 27l23 10q5 3 11 6.5t13 8.5q14 10 28 24t23 30
q2 3 4.5 10.5t0.5 10.5t-7.5 2.5t-12 -2t-12.5 -4t-9 -3.5q-4 -2 -16.5 -7.5t-16.5 -5.5q-8 0 -2 6q4 4 13 8.5t14 7.5q7 5 14 9.5t14 9.5q2 2 6.5 6t1.5 9q-5 5 -11.5 10t-12.5 7q-7 3 -14 4q-29 7 -54 -3q-26 -9 -45 -31q-11 -14 -16 -29.5t-7 -32.5q-2 -11 -10.5 -19
t-16.5 -13q-10 -8 -19.5 -13t-19.5 -12q-2 0 -8 -3.5t-3 -7.5q3 -2 11 1.5t11 3.5q10 4 19 7.5t19 7.5q4 2 10 3t8 -4q1 -3 1.5 -6t1.5 -5q2 -8 4.5 -14.5t6.5 -13.5z" />
    <glyph glyph-name="comma" unicode="," horiz-adv-x="183" 
d="M106 184q9 -1 19.5 -4.5t18 -9.5t11 -14.5t-0.5 -19.5l-64 -158l-57 18q2 11 5.5 20t6.5 20q2 7 14 15q4 2 8.5 5t9.5 5q17 14 25 25t19 29q1 1 3 5.5t-2 2.5q-4 0 -10 -8t-8 -12q-14 -19 -38 -27q-5 -2 -17 -2.5t-15 5.5q-4 4 -5.5 11.5t-3.5 12.5q-10 93 81 81z" />
    <glyph glyph-name="period" unicode="." horiz-adv-x="205" 
d="M98 145q11 0 22.5 -2.5t20.5 -9.5q4 -4 2 -7q-2 -8 -12 -17t-15 -14q-8 -7 -15 -12.5t-14 -11.5q-4 -2 -10.5 -7t-6.5 -8q-2 -3 2 -2t5 1q4 4 10 7t11 7q13 9 28 17q6 5 20 12t21 4q2 -1 2 -3.5t1 -4.5q3 -12 3 -23q0 -29 -21.5 -50.5t-53.5 -21.5q-30 0 -52 21.5
t-22 50.5q0 31 22 52.5t52 21.5z" />
    <glyph glyph-name="colon" unicode=":" horiz-adv-x="205" 
d="M98 243q11 0 22.5 -2.5t20.5 -9.5q4 -4 2 -7q-2 -8 -12 -17t-15 -14q-8 -7 -15 -12.5t-14 -11.5q-4 -2 -10.5 -7t-6.5 -8q-2 -3 2 -2t5 1q4 4 10 7t11 7q13 9 28 17q6 5 20 12t21 4q2 -1 2 -3.5t1 -4.5q3 -12 3 -23q0 -29 -21.5 -50.5t-53.5 -21.5q-30 0 -52 21.5
t-22 50.5q0 31 22 52.5t52 21.5zM98 566q11 0 22.5 -2.5t20.5 -9.5q4 -4 2 -7q-2 -8 -12 -17t-15 -14q-8 -7 -15 -12.5t-14 -11.5q-4 -2 -10.5 -7t-6.5 -8q-2 -3 2 -2t5 1q4 4 10 7t11 7q13 9 28 17q6 5 20 12t21 4q2 -1 2 -3.5t1 -4.5q3 -12 3 -23q0 -29 -21.5 -50.5
t-53.5 -21.5q-30 0 -52 21.5t-22 50.5q0 31 22 52.5t52 21.5z" />
    <glyph glyph-name="semicolon" unicode=";" horiz-adv-x="205" 
d="M98 566q11 0 22.5 -2.5t20.5 -9.5q4 -4 2 -7q-2 -8 -12 -17t-15 -14q-8 -7 -15 -12.5t-14 -11.5q-4 -2 -10.5 -7t-6.5 -8q-2 -3 2 -2t5 1q4 4 10 7t11 7q13 9 28 17q6 5 20 12t21 4q2 -1 2 -3.5t1 -4.5q3 -12 3 -23q0 -29 -21.5 -50.5t-53.5 -21.5q-30 0 -52 21.5
t-22 50.5q0 31 22 52.5t52 21.5zM119 184q9 -1 19.5 -4.5t18 -9.5t11 -14.5t-0.5 -19.5l-64 -158l-57 18q2 11 5.5 20t6.5 20q2 7 14 15q4 2 8.5 5t9.5 5q17 14 25 25t19 29q1 1 3 5.5t-2 2.5q-4 0 -10 -8t-8 -12q-14 -19 -38 -27q-5 -2 -17 -2.5t-15 5.5q-4 4 -5.5 11.5
t-3.5 12.5q-10 93 81 81z" />
    <glyph glyph-name="R" unicode="R" horiz-adv-x="578" 
d="M558 127l-127 -138q-18 15 -36 29.5t-36 29.5l-54 45q-5 3 -9 6.5t-9 7.5q-14 11 -27.5 22.5t-27.5 22.5q-4 3 -7.5 6t-6.5 6q-1 -5 -1 -8.5t-4 -7.5q-2 -3 -2 -2.5t-3 1.5q-5 1 -5 -9t1 -14q1 -8 1 -14v-14q0 -13 0.5 -22t4.5 -22q3 -11 3 -18v-18l-171 -8
q-2 33 -2.5 65.5t-1.5 64.5q-2 20 -2 39t-1 39q0 3 -0.5 13.5t-1 22.5t-0.5 21.5v10.5q1 4 5 4t9 -1t10 -3t7 -3q3 -1 10.5 -2.5t7.5 4.5q0 3 -2.5 6.5t-6.5 7t-8 6t-6 4.5q-8 7 -18 17.5t-11 21.5v1q0 5 0.5 8.5t7.5 2.5q5 0 13 -4t16.5 -8.5t16 -9.5t12.5 -8
q9 -5 17.5 -11.5t17.5 -12.5q2 -2 9 -6.5t14.5 -9.5t14 -9t8.5 -4q4 1 2.5 3t-2.5 3q-5 5 -11.5 9t-12.5 8q-8 7 -16.5 13t-16.5 13q-9 8 -18 14.5t-18 14.5q-5 4 -14 11.5t-18 16t-16 17t-8 15.5q-1 4 -0.5 11t-0.5 12q-1 32 -2 64.5t-2 65.5q-1 26 -1.5 52t-2.5 52
q-1 23 -1.5 47t-1.5 47q75 6 152 7t150 -20q9 -2 20.5 -8t19.5 -11q7 -4 12 -6.5t13 -5.5t16.5 -7t16.5 -8q19 -11 36 -31q8 -9 14 -18.5t14 -18.5q10 -13 17.5 -23t13.5 -26q2 -5 3.5 -15t4.5 -12q1 -1 2 -1t-1 0q-3 0 -5.5 10.5t-3.5 13.5q-2 8 -6 16t-9 14q-1 2 2 -2.5
t3 -5.5q5 -7 7.5 -15t4.5 -16q0 -1 0.5 -4t2 -6t3 -4.5t3.5 0.5q1 0 1 -1q-2 -2 -4.5 -1.5t-0.5 -2.5q2 -4 3 -9t2 -8q4 -41 -5.5 -80t-29.5 -73.5t-48.5 -64t-61.5 -50.5q-2 -2 -5 -3t-5 -3zM226 382q18 5 37 13.5t35.5 20.5t29.5 27t20 34q13 36 -5 63t-50 41
q-7 4 -13.5 6t-14.5 7q-8 4 -15.5 8t-15.5 9q-11 7 -21.5 13.5t-22.5 11.5q-9 5 -17 9.5t-18 9.5q-11 5 -22.5 9.5t-23.5 9.5q-7 3 -13.5 5t-14.5 4q-6 1 -6 -1t5 -4t11 -4t11 -4q7 -3 13.5 -6t12.5 -7q24 -10 45 -24q8 -7 16 -11.5t16 -12.5q2 -2 6.5 -6t8.5 -8.5t7 -9
t3 -7.5t-5 -2.5t-10.5 2.5t-10.5 4.5t-6 3.5q-5 2 -18 7.5t-18 5.5q-4 0 -3 -3t3 -5q5 -4 13.5 -8.5t14.5 -9.5q19 -13 35 -34l3.5 -7t1.5 -8t-0.5 -11t-0.5 -11q-1 -17 -1 -35t-1 -35q0 -6 -0.5 -12t-0.5 -12v-5t-0.5 -8.5t-0.5 -8v-4.5h1z" />
    <glyph glyph-name="parenleft" unicode="(" horiz-adv-x="436" 
d="M358 646q-1 0 -1 1q-21 3 -43 -0.5t-40 -13.5q-5 -3 -8.5 -5.5t-8.5 -7.5q-2 -3 -6 -5.5t-6 -5.5q-19 -21 -29 -46.5t-16 -52.5q-1 -2 -1.5 -10.5t-1.5 -9.5q-3 -5 -14 -7.5t-16 -3.5q-12 -1 -24 -1.5t-23 -2.5q-2 -1 -7 -1.5t-6 -2.5q-1 -3 4 -3h7h20q11 0 26.5 -2
t24.5 -7q4 -2 4 -6q-2 -30 -1 -61.5t5 -60.5q6 -57 21 -95.5t38 -62.5q39 -41 97 -44q11 -1 20.5 -0.5t20.5 2.5l19 -171q-17 -2 -34.5 -2.5t-34.5 -0.5q-61 5 -115 28.5t-98 69.5q-3 3 -5 5.5t-4 4.5t-3 4t2 3q5 4 14.5 6t14.5 2q10 0 20 -1t19 -2q6 0 9.5 -0.5t8.5 -0.5
q7 -2 13 -3.5t13 -2.5q5 0 6 1q0 -1 -4 3q-10 2 -15 4q-6 2 -13 3.5t-14 2.5q-8 1 -16.5 2t-18.5 3q-7 2 -13.5 2t-13.5 2q-4 0 -10 0.5t-9 2.5q-5 2 -10.5 3t-8.5 6l-5 7.5t-5 8.5q-3 5 -4 8t5 6q6 2 15 2t17 -1q11 -1 23 -2.5t24 -2.5t23.5 -2.5t23.5 -3.5q10 -1 19 -2.5
t19 -2.5q9 -1 17.5 -2.5t16.5 -2.5q5 -1 10 -1h10q-6 0 -12 2q-9 1 -18 2.5t-18 2.5q-11 2 -22.5 3.5t-22.5 3.5q-10 2 -20 3.5t-20 3.5q-24 3 -52 9q-11 2 -23.5 5.5t-22.5 8.5q-9 3 -10 10q-14 34 -22 69t-13 73q-9 71 -3 158q2 37 8 73t17 71q1 2 1.5 5t2.5 5
q5 5 14.5 6.5t16.5 1.5q21 2 42.5 3t43.5 2q7 0 13.5 -0.5t14.5 -1.5q5 -1 9.5 -1t9.5 -2q7 0 14.5 -1t15.5 -2q5 -1 5 0.5t-5 2.5q-5 0 -11.5 1t-11.5 3q-7 1 -13.5 1.5t-14.5 1.5q-5 1 -10.5 1.5t-10.5 0.5q-14 1 -29.5 1t-30.5 1q-3 0 -10 0.5t-15 2t-14.5 3t-8.5 4.5
t0 7q35 72 93.5 112t136.5 47q23 3 50 2t49 -6z" />
    <glyph glyph-name="parenright" unicode=")" horiz-adv-x="436" 
d="M410 494q3 -45 3.5 -84t-2.5 -74q0 -3 -0.5 -15t-1.5 -14q-2 -5 -9 -7t-16 -3t-17.5 -1h-12.5q-12 -1 -24.5 -1.5t-24.5 -2.5q-10 -1 -15.5 -3t-15.5 -6q-4 0 -5 -3q1 -2 5 -2q5 1 11 3t13 3t16 1h16q15 -1 28.5 -2t28.5 -6q4 -2 9.5 -5t5.5 -8q0 -2 -1.5 -7.5t-3 -12.5
t-3.5 -13t-2 -8q-12 -41 -30 -78t-46 -69q-42 -49 -95 -76t-115 -35q-17 -2 -34 -2.5t-35 0.5l14 172q11 -1 21 -1t19 2q28 3 52 15t42 34q23 24 37 64t18 97q2 9 2.5 12t9.5 7q4 2 12 4t16 3.5t15.5 2.5t11.5 1q7 0 11.5 -2t11.5 -3h6t2 5q0 1 -4 2.5t-8.5 3t-8.5 3t-5 1.5
q-9 2 -17.5 2t-18.5 1q-3 0 -8 0.5t-10.5 1.5t-10 3t-4.5 5q-1 2 -1 9v10q-2 14 -2 27.5t-2 27.5q0 2 -1 12.5t-1 11.5q0 4 7 6.5t10 3.5q13 3 30 6.5t28 3.5q9 0 17.5 -0.5t17.5 -1.5q2 -1 5.5 -0.5t4.5 2.5q4 2 -2.5 3t-8.5 2q-9 1 -18.5 1.5t-18.5 1.5q-7 1 -14.5 0.5
t-15.5 0.5q-11 1 -25 2t-22 5q-5 2 -5 6t-1 8q-11 35 -32.5 63t-59.5 39q-6 3 -11 3q-3 2 -4 2.5t-6 0.5q-22 2 -39 -4q-2 0 2.5 2t6.5 2q12 5 28.5 6.5t30.5 1.5h42q23 -1 46.5 -3t47.5 -4q11 -1 21 -2t19 -2h20q4 -1 13.5 -2t11.5 -1h1q0 2 -3 3q-10 2 -20.5 2.5
t-19.5 2.5q-7 1 -12 1h-13q-13 2 -25 3t-25 2q-19 2 -37.5 4t-38.5 4q-16 2 -32 2.5t-32 2.5q-3 0 -10.5 0.5t-15 1.5t-13.5 3t-8 5t-4.5 14t-3.5 15q-5 23 -11.5 44t-12.5 44l-2 6q-1 3 -1 6q24 8 53.5 10.5t52.5 0.5q79 -5 136.5 -43t93.5 -107q5 -9 8.5 -13t6.5 -16
q2 -5 4 -12.5t5 -13.5q20 -62 27 -127z" />
    <glyph glyph-name="quotesingle" unicode="'" horiz-adv-x="155" 
d="M60 796l34 -6q13 -3 24 -6t13 -6q1 -3 -4 -25t-14 -48.5t-21 -51t-24 -31.5l-47 18z" />
    <glyph glyph-name="quotedbl" unicode="&#x22;" horiz-adv-x="256" 
d="M60 796l34 -6q13 -3 24 -6t13 -6q1 -3 -4 -25t-14 -48.5t-21 -51t-24 -31.5l-47 18zM167 796l34 -6q13 -3 24 -6t13 -6q1 -3 -4 -25t-14 -48.5t-21 -51t-24 -31.5l-47 18z" />
    <glyph glyph-name="B" unicode="B" horiz-adv-x="593" 
d="M201 501q23 0 45.5 3.5t43.5 12.5q8 3 18 6.5t12 13.5q1 4 4.5 6.5t6.5 4.5q10 8 10.5 13t1.5 16q1 10 -3.5 14.5t-12.5 9.5q-21 15 -47 18q-21 2 -40 1.5t-40 -3.5zM434 455q2 -1 8 -3.5t12 -5.5t11.5 -6t6.5 -4q3 -3 1.5 -8t-5 -10.5t-7 -10t-5.5 -6.5
q-8 -11 -16.5 -18.5t-18.5 -16.5q-2 -2 -7 -7.5t0 -9.5q4 -2 13 4.5t12 8.5q9 6 17.5 12.5t17.5 12.5q3 2 8.5 5t11.5 6t12 4.5t9 0.5q2 -1 5.5 -5t7.5 -9t7 -10t5 -7q17 -29 24.5 -61t7.5 -65q0 -49 -14 -86.5t-37 -64t-54 -44t-65 -28.5t-69 -15.5t-67 -5.5h-12t-11 -2
q-3 -3 -3 -4t-2 4q0 1 -1 2t-1.5 0.5t0.5 -1.5v-2q0 1 -3 0.5t-4 -0.5q-9 1 -17.5 2t-17.5 2q-14 2 -22 0t-22 -4t-25.5 0t-25.5 3q-8 0 -16 -0.5t-15 -1.5q-4 7 -9.5 10.5t-6.5 13.5q-1 5 -1 12t-1 12l-4 80l-4 80q-3 66 -6.5 131.5t-6.5 131.5q-1 9 3 18.5t8 17.5
q6 12 12 22t16 20l13 13t7 14q-1 3 -5 2.5t-8.5 -3l-9 -5t-5.5 -3.5q-5 -3 -15.5 -10t-14.5 -7q-5 0 -5.5 7t-0.5 10t-1 5q0 12 5 24.5t10 23.5q10 19 20.5 29.5t30.5 18.5q5 2 13 4.5t14 4.5q1 0 6 1.5t10 3.5t8.5 4.5t2.5 4.5q-2 3 -11 1t-12 -2q-8 -2 -15 -3.5t-15 -3.5
q-27 -6 -50 -20q-8 -4 -14 -6.5t-7 10.5q-1 7 -1 13.5t-1 14.5q-1 16 -1.5 31.5t-1.5 32.5q40 6 83.5 9t87.5 2.5t86.5 -5.5t79.5 -15q60 -16 97 -49.5t48.5 -75.5t-3.5 -87t-59 -83zM206 174q25 -2 59 -2t64 7t51 22.5t21 44.5q0 30 -22.5 43.5t-54 18t-65 1.5t-55.5 -6z
" />
    <glyph glyph-name="C" unicode="C" horiz-adv-x="594" 
d="M403 503l-0.5 8.5t-3 21.5t-7.5 27.5t-14 26.5t-23.5 20t-34.5 7q-17 -2 -31 -6.5t-27 -14.5q-4 -4 -1 -10q3 -5 8.5 -10.5t11.5 -10.5t10.5 -9.5t5.5 -7.5q1 -5 -4.5 -4.5t-7.5 0.5q-11 4 -20.5 8t-22.5 5q-11 1 -13.5 -2t-7.5 -12q-4 -8 -7 -16.5t-6 -17.5
q-15 -54 -14 -114q2 -62 18 -119q15 -49 37.5 -82t48.5 -34q22 -1 36.5 5.5t24.5 16.5q19 20 26 46t8 43l170 -5q0 -19 -4.5 -44t-14 -52t-24.5 -54t-37 -51q-32 -34 -79 -55.5t-111 -19.5q-45 1 -83.5 20t-69 51t-53.5 74.5t-38 92.5q-11 38 -17.5 79.5t-7.5 84.5
q-2 88 21 166q11 35 25 65q3 7 8 7t12 -1q6 -1 16.5 -4l17.5 -5q33 -9 61 -22q15 -7 29.5 -14t28.5 -14q11 -5 20.5 -10.5t20.5 -11.5q2 -1 5.5 -2.5t5.5 -0.5q1 2 -3 5q-8 5 -17 10.5t-17 10.5l-15 7.5t-14 7.5q-17 10 -32.5 18.5t-32.5 16.5l-15 7.5t-18 9.5t-16.5 10.5
t-10.5 10.5q-4 5 -5.5 8.5t3.5 8.5q3 4 11 3.5t17 -3.5t17 -6.5t12 -5.5q5 -3 15.5 -9.5t15.5 -4.5q4 1 2.5 4.5t-5.5 7.5t-8 7.5t-5 4.5q-7 6 -19.5 16t-16.5 18q-3 5 0 8t7 6q36 31 77.5 46.5t88.5 18.5h1q65 3 109.5 -16t73.5 -50t44.5 -68t23 -69t9 -53.5l1.5 -21.5z
" />
    <glyph glyph-name="b" unicode="b" horiz-adv-x="573" 
d="M221 150q53 -3 84 5t43.5 22.5t8 31.5t-23 31t-50 22t-72.5 4zM438 330q5 -5 10.5 -9t10.5 -9q29 -26 44 -57.5t15.5 -64t-14 -64t-45.5 -56.5q-4 -4 -10 -7t-12 -3q-1 0 -1.5 -0.5t-1.5 -0.5h-1q-6 0 -10.5 -3t-9.5 -7q-12 -10 -26 -15t-28 -8q-15 -4 -29.5 -7.5
t-28.5 -7.5q-9 -3 -19 -6t-19 -4q-51 -8 -106.5 -9t-106.5 2q-5 112 -10.5 223t-10.5 223q-1 22 -1.5 44t-2.5 45q0 7 -0.5 14t-0.5 15q-1 7 -1.5 21.5t1.5 19.5q1 2 3.5 1t5 -3t5 -4.5t2.5 -3.5q30 -31 53 -67q15 -22 30 -42t31 -41q9 -14 17.5 -28t16.5 -28q14 -20 28 -46
q3 -6 8.5 -16.5t8.5 -14.5q4 -4 4 0q0 1 -4 8t-8.5 15.5t-8.5 16t-5 9.5q-7 12 -13.5 23t-13.5 23q-5 8 -10.5 17.5t-10.5 17.5l-32 46t-30 47q-10 17 -20.5 33t-20.5 33q-5 10 -9 18.5t-9 18.5q-7 14 -15 32.5t-10 33.5q-1 14 -1 28t-1 28q25 2 49.5 3.5t49.5 3.5q7 1 15 2
t14 0q10 0 6 -6q-2 -3 -15.5 -9t-28 -11.5t-25.5 -9.5t-7 -4q6 0 26 5t42.5 11t42.5 11.5t26 7.5q14 5 23.5 6.5t23.5 3.5h1h11.5t16 -0.5t16.5 -1.5t12 -1q21 -4 42.5 -8t42.5 -11q8 -2 18 -5.5t17 -6.5q57 -28 85.5 -75.5t34.5 -109.5q4 -45 -3 -79.5t-23 -61.5t-39.5 -46
t-50.5 -32zM195 464q3 0 4 -1h15t14 -2q11 -3 24.5 -15.5t20.5 -20.5q10 -11 20.5 -24t18.5 -25q8 -11 15 -22t15 -22q6 -8 12 -17t11 -17q4 -7 7.5 -15t7.5 -14q2 -4 5 -4q1 2 0 4q-4 8 -8.5 18.5t-9.5 18.5q-10 17 -20.5 34t-20.5 34q-4 7 -10.5 18t-13 23.5t-11.5 23.5
t-5 18q0 6 2 6.5t7 1.5q15 2 31.5 6t30 12t21.5 21t7 32q-3 29 -25.5 43t-53 18t-64 1.5t-58.5 -6.5z" />
    </font>
</defs>
</svg>
